<?xml version="1.0" encoding="UTF-8" standalone="no"?>
<!-- Generator: Adobe Illustrator 25.2.1, SVG Export Plug-In . SVG Version: 6.00 Build 0)  -->

<svg
   version="1.1"
   id="Camada_1"
   x="0px"
   y="0px"
   viewBox="0 0 1719.6968 496.39279"
   xml:space="preserve"
   width="1719.6968"
   height="496.39279"
   xmlns="http://www.w3.org/2000/svg"
   xmlns:svg="http://www.w3.org/2000/svg"><defs
   id="defs24" />
<style
   type="text/css"
   id="style1">
	.st0{display:none;fill:#A5DEE5;stroke:#A5DEE5;stroke-width:2;stroke-miterlimit:10;}
	.st1{fill:#1C6CA9;stroke:#1C6CA9;stroke-width:2;stroke-miterlimit:10;}
	.st2{fill:none;stroke:#1C6CA9;stroke-width:6;stroke-linecap:round;stroke-linejoin:round;stroke-miterlimit:1.3892;}
	.st3{fill:#1C6CA9;stroke:#1C6CA9;stroke-width:3;stroke-miterlimit:15.1181;}
	.st4{fill:none;stroke:#1C6CA9;stroke-width:6;stroke-linecap:round;stroke-linejoin:round;stroke-miterlimit:15.1181;}
	.st5{fill:#1C6CA9;stroke:#1C6CA9;stroke-width:3;stroke-linecap:round;stroke-linejoin:round;stroke-miterlimit:15.1181;}
	.st6{fill:#FFFFFF;stroke:#000000;stroke-miterlimit:10;}
	.st7{fill:#1B6CA8;}
	.st8{fill:#FEFDCA;stroke:#FEFDCA;stroke-width:2;stroke-miterlimit:10;}
</style>
<rect
   class="st0"
   width="2000"
   height="2000"
   id="rect1"
   x="-118.56169"
   y="-751.3385" />









<g
   id="path109812"
   class="st1"
   style="fill:#ffffff;stroke:none"
   transform="matrix(1.5502586,0,0,1.5502586,-434.54261,-1553.9792)"><path
     style="color:#000000;fill:#ffffff;stroke:none;stroke-miterlimit:10;-inkscape-stroke:none"
     d="m 339.5,1004.3 c -4,-0.5 -7.9,1.4 -10.1,4.8 l -46.6,76.2 c -2.5,4.1 -1.8,9.4 1.6,12.7 l 43.6,41.5 2.2,-3.7 -42.9,-40.9 c -2.1,-2 -2.5,-5.1 -1,-7.5 l 46.6,-76.2 c 1.2,-2 3.5,-3.2 5.9,-2.9 1.1,0.1 2.2,0.7 3.1,1.4 l 42.8,36.2 c 1.4,-0.7 3,-1.1 4.5,-1.2 h 0.7 l -45.1,-38.2 c -1.6,-1.1 -3.4,-1.9 -5.3,-2.2 z m 236.6,0 c -2,0.2 -3.8,1.1 -5.3,2.3 l -45.1,38.2 h 2.9 c 1,0.1 1.9,0.3 2.9,0.8 l 42.3,-35.8 c 0.9,-0.8 2,-1.2 3.1,-1.4 2.3,-0.3 4.6,0.8 5.9,2.9 l 46.6,76.2 c 1.5,2.4 1.1,5.5 -1,7.5 l -41.5,39.5 2.2,3.7 42.2,-40.2 c 3.5,-3.3 4.2,-8.7 1.6,-12.7 l -46.6,-76.2 c -2.2,-3.4 -6.1,-5.3 -10.2,-4.8 z"
     id="path25" /><path
     style="color:#000000;fill:#ffffff;stroke:none;stroke-miterlimit:10;-inkscape-stroke:none"
     d="m 575.99219,1003.3066 c -2.23304,0.2253 -4.20413,1.2219 -5.81641,2.5118 l -0.0117,0.01 -47.1914,39.9727 h 5.54882 c 0.9169,0.093 1.65792,0.2567 2.53125,0.6933 l 0.58985,0.295 42.8125,-36.2344 0.01,-0.01 c 0.71491,-0.6355 1.61537,-0.972 2.58985,-1.1524 1.89564,-0.2367 3.79519,0.6558 4.89453,2.4317 l 46.59961,76.1992 h 0.004 c 1.25254,2.0041 0.93044,4.5583 -0.84179,6.2461 l -42.07813,40.0508 3.24805,5.4629 43.10547,-41.0606 c 3.84775,-3.6279 4.62077,-9.5591 1.75195,-13.9726 l 0.0156,0.021 -46.60743,-76.2089 -0.008,-0.012 c -2.39802,-3.706 -6.67372,-5.79 -11.14648,-5.25 z m -236.36719,0 c -4.38876,-0.5486 -8.66394,1.5382 -11.06445,5.248 l -0.008,0.012 -46.60546,76.2109 h -0.002 c -2.74261,4.4979 -1.97695,10.3126 1.75781,13.9375 h 0.004 l 44.51172,42.3672 3.24805,-5.4609 -43.47657,-41.4512 c -1.77222,-1.6879 -2.09433,-4.2421 -0.84179,-6.2461 h 0.002 l 46.60547,-76.2071 h 0.002 c 1.00076,-1.6679 2.92167,-2.6714 4.91797,-2.4218 h 0.0176 0.0156 c 0.80069,0.073 1.76928,0.5677 2.57618,1.1953 l 43.27148,36.5996 0.58984,-0.2949 c 1.26132,-0.6306 2.743,-1.0034 4.11133,-1.0957 h 3.36914 l -47.21875,-39.9941 -0.041,-0.029 c -1.702,-1.1701 -3.63653,-2.0358 -5.71094,-2.3633 h -0.0156 z m -0.25977,1.9844 c 1.70856,0.2737 3.35832,1.0007 4.84375,2.0175 l 43.28321,36.6602 c -0.88313,0.1716 -1.74593,0.4308 -2.58789,0.791 l -42.375,-35.8379 -0.0156,-0.014 c -0.98919,-0.7694 -2.21494,-1.4704 -3.60742,-1.6016 -2.79718,-0.3423 -5.46702,1.0499 -6.86328,3.3769 l -46.5957,76.1934 c -1.74039,2.7943 -1.26198,6.4345 1.1621,8.7441 l 42.32422,40.3516 -1.15234,1.9356 -42.69141,-40.6348 c -3.05842,-2.975 -3.6915,-7.7542 -1.4375,-11.4531 h 0.002 l 46.58593,-76.1777 h 0.002 c 1.99792,-3.0858 5.5162,-4.7946 9.12304,-4.3476 z m 236.85547,0 c 3.72123,-0.4538 7.23854,1.259 9.23828,4.3476 5.1e-4,8e-4 10e-4,0 0.002,0 l 46.59375,76.1914 0.008,0.012 c 2.33118,3.5864 1.70302,8.4537 -1.44922,11.4258 h -0.002 l -41.29297,39.3379 -1.15039,-1.9375 40.92187,-38.9492 c 2.42777,-2.3122 2.90567,-5.958 1.15821,-8.7539 l -46.59571,-76.1953 h -0.002 c -1.49558,-2.4159 -4.18325,-3.7168 -6.87891,-3.3652 h -0.0254 -0.0254 c -1.21415,0.2208 -2.50403,0.678 -3.58203,1.6348 -10e-4,10e-4 -0.003,9e-4 -0.004,0 l -41.89454,35.4571 c -0.85713,-0.3343 -1.70211,-0.6212 -2.54101,-0.7051 h -0.0488 -0.22461 l 43.00781,-36.4258 c 1.38377,-1.1049 3.00587,-1.9041 4.76563,-2.0801 h 0.0117 z"
     id="path26" /></g><path
   style="color:#000000;fill:#ffffff;stroke:none;stroke-width:1.55026;stroke-linecap:round;stroke-linejoin:round;stroke-miterlimit:1.3892;-inkscape-stroke:none"
   d="m 168.97425,61.390199 c -7.82879,0 -14.98098,4.16678 -18.89377,10.81848 a 4.6512408,4.6512408 0 0 0 -0.0181,0.0372 L 42.331476,259.03378 c -3.95836,6.7432 -3.95957,15.1592 0.003,21.9005 10e-4,0 0.002,0 0.003,0 l 107.724804,186.7728 a 4.6512408,4.6512408 0 0 0 0.0181,0.034 c 3.91279,6.6517 11.06498,10.8185 18.89377,10.8185 h 215.79464 c 7.82879,0 14.97797,-4.1668 18.89076,-10.8185 a 4.6512408,4.6512408 0 0 0 0.0212,-0.034 l 107.72177,-186.7728 c 3.9682,-6.746 3.96891,-15.1716 0.003,-21.9186 L 403.52354,72.242009 a 4.6512408,4.6512408 0 0 0 -0.0181,-0.0341 c -3.91282,-6.65092 -11.06198,-10.8177 -18.89079,-10.8177 z m 0,9.30155 h 215.64036 c 4.57327,0 8.58478,2.3443 10.87301,6.23436 L 503.36684,263.69898 a 4.6512408,4.6512408 0 0 0 0.0181,0.034 c 2.23165,3.7938 2.23165,8.696 0,12.4898 a 4.6512408,4.6512408 0 0 0 -0.0181,0.037 l -107.74297,186.8062 0.0181,-0.037 c -2.28823,3.89 -6.29974,6.2343 -10.87301,6.2343 H 168.97425 c -4.57326,0 -8.58779,-2.3443 -10.87602,-6.2343 L 50.376446,276.25928 a 4.6512408,4.6512408 0 0 0 -0.0212,-0.037 c -2.23166,-3.7938 -2.23166,-8.696 0,-12.4898 a 4.6512408,4.6512408 0 0 0 0.0212,-0.037 L 158.09823,76.925339 c 2.28823,-3.89006 6.30276,-6.23437 10.87602,-6.23437 z"
   id="path82649" /><g
   id="circle82651"
   class="st3"
   style="fill:#ffffff;stroke:none"
   transform="matrix(1.5502586,0,0,1.5502586,-434.54261,-1553.9792)"><path
     style="color:#000000;fill:#ffffff;stroke:none;stroke-miterlimit:15.1181;-inkscape-stroke:none"
     d="m 417,1127 a 11,11 0 0 1 -11,11 11,11 0 0 1 -11,-11 11,11 0 0 1 11,-11 11,11 0 0 1 11,11 z"
     id="path27" /><path
     style="color:#000000;fill:#ffffff;stroke:none;stroke-miterlimit:15.1181;-inkscape-stroke:none"
     d="m 406,1114.5 c -6.88579,0 -12.5,5.6142 -12.5,12.5 0,6.8858 5.61421,12.5 12.5,12.5 6.88579,0 12.5,-5.6142 12.5,-12.5 0,-6.8858 -5.61421,-12.5 -12.5,-12.5 z m 0,3 c 5.26447,0 9.5,4.2355 9.5,9.5 0,5.2645 -4.23553,9.5 -9.5,9.5 -5.26447,0 -9.5,-4.2355 -9.5,-9.5 0,-5.2645 4.23553,-9.5 9.5,-9.5 z"
     id="path28" /></g><g
   id="circle82653"
   class="st3"
   style="fill:#ffffff;stroke:none"
   transform="matrix(1.5502586,0,0,1.5502586,-434.54261,-1553.9792)"><path
     style="color:#000000;fill:#ffffff;stroke:none;stroke-miterlimit:15.1181;-inkscape-stroke:none"
     d="m 528.70001,1127 a 11,11 0 0 1 -11,11 11,11 0 0 1 -11,-11 11,11 0 0 1 11,-11 11,11 0 0 1 11,11 z"
     id="path29" /><path
     style="color:#000000;fill:#ffffff;stroke:none;stroke-miterlimit:15.1181;-inkscape-stroke:none"
     d="m 517.69922,1114.5 c -6.88579,0 -12.5,5.6142 -12.5,12.5 0,6.8858 5.61421,12.5 12.5,12.5 6.88578,0 12.5,-5.6142 12.5,-12.5 0,-6.8858 -5.61422,-12.5 -12.5,-12.5 z m 0,3 c 5.26447,0 9.5,4.2355 9.5,9.5 0,5.2645 -4.23553,9.5 -9.5,9.5 -5.26447,0 -9.5,-4.2355 -9.5,-9.5 0,-5.2645 4.23553,-9.5 9.5,-9.5 z"
     id="path30" /></g><path
   style="color:#000000;fill:#ffffff;stroke:none;stroke-width:1.55026;stroke-linecap:round;stroke-linejoin:round;stroke-miterlimit:15.1181;-inkscape-stroke:none"
   d="m 281.35891,190.55215 c -4.32305,0 -8.62564,1.9643 -11.28479,5.8952 l -61.99218,90.19673 a 4.6512408,4.6512408 0 0 0 -0.0363,0.054 c -3.15314,4.7297 -3.19572,10.9811 0.0606,15.6328 l 61.96794,90.009 c 5.35337,7.9136 17.38882,7.9136 22.74219,0 l 61.98913,-90.0392 a 4.6512408,4.6512408 0 0 0 0.0363,-0.057 c 3.15133,-4.727 3.19615,-10.9727 -0.0544,-15.6236 l -0.003,-0.015 -61.98916,-90.19053 a 4.6512408,4.6512408 0 0 0 -0.0333,-0.048 c -2.7378,-3.8786 -7.07981,-5.8254 -11.40288,-5.8195 z m 0.0546,9.0957 c 1.37161,0 2.76294,0.693 3.74544,2.0801 0.002,0 0.005,0 0.006,0 l 61.97705,90.17843 a 4.6512408,4.6512408 0 0 0 0.0212,0.034 c 1.08446,1.5492 1.12703,3.3569 -0.0606,5.1383 l -61.97097,90.0149 a 4.6512408,4.6512408 0 0 0 -0.0212,0.029 c -1.77783,2.6282 -5.55562,2.6282 -7.33346,0 a 4.6512408,4.6512408 0 0 0 -0.0212,-0.029 l -62.01035,-90.0725 a 4.6512408,4.6512408 0 0 0 -0.0212,-0.028 c -1.08389,-1.5484 -1.12514,-3.3579 0.0606,-5.1384 6.2e-4,-9e-4 -6.1e-4,0 0,0 l 61.97388,-90.16633 a 4.6512408,4.6512408 0 0 0 0.0181,-0.031 c 0.90645,-1.34 2.26232,-2.0164 3.63645,-2.0105 z"
   id="path82655" /><g
   id="path82657"
   class="st5"
   transform="matrix(1.7403403,0,0,1.7403403,-522.43075,-1762.4621)"
   style="fill:#ffffff;stroke:none"><path
     style="color:#000000;fill:#ffffff;stroke:none;stroke-linecap:round;stroke-linejoin:round;stroke-miterlimit:15.1181;-inkscape-stroke:none"
     d="m 461.9,1123.7 -24.1,34.9 22.4,32.6 c 0.8,1.1 2.4,1.1 3.2,0 l 22.4,-32.6 z"
     id="path31" /><path
     style="color:#000000;fill:#ffffff;stroke:none;stroke-linecap:round;stroke-linejoin:round;stroke-miterlimit:15.1181;-inkscape-stroke:none"
     d="m 461.90234,1122.1992 a 1.50015,1.50015 0 0 0 -1.23632,0.6485 l -24.09961,34.9003 a 1.50015,1.50015 0 0 0 -0.002,1.7012 l 22.39844,32.5996 a 1.50015,1.50015 0 0 0 0.0234,0.033 c 1.35955,1.8694 4.26739,1.8694 5.62695,0 a 1.50015,1.50015 0 0 0 0.0234,-0.033 l 22.40039,-32.5996 a 1.50015,1.50015 0 0 0 0,-1.6972 l -23.90039,-34.9004 a 1.50015,1.50015 0 0 0 -1.23438,-0.6524 z m -0.008,4.1485 22.08594,32.25 -21.79492,31.7207 c -0.2401,0.3281 -0.53165,0.3297 -0.77149,0 l -21.79297,-31.7168 z"
     id="path32" /></g><path
   class="st6"
   d="M 1479.5616,436.08768"
   id="path1"
   style="fill:#ffffff;stroke-width:1.55026" /><g
   id="g6"
   style="fill:#ffffff;fill-opacity:0.988235"
   transform="matrix(1.5502586,0,0,1.5502586,-434.54261,-1553.9792)">
	<path
   class="st7"
   d="m 676.6,1213.3 c -0.7,-1.4 -1.1,-3 -1.4,-5.1 -0.2,-2 -0.1,-4.1 0.5,-6.1 0.6,-2 1.5,-3.9 2.7,-5.7 1.2,-1.8 3,-3.2 5.2,-4.1 3.2,-1.4 5.9,-2 8.3,-2 2.4,0 4.5,0.4 6.3,1.2 1.8,0.8 3.5,1.8 5.1,3 1.6,1.2 3.2,2.4 4.7,3.6 6.5,5 16.8,7.4 30.8,7.4 7.2,0 13,-1.6 17.4,-4.7 4.4,-3.2 6.6,-7.3 6.6,-12.5 0,-5.2 -2,-9.3 -6.1,-12.3 -4.1,-3 -9.2,-5.6 -15.4,-7.8 -6.2,-2.1 -12.9,-4.3 -20,-6.4 -7.1,-2.1 -13.8,-5.1 -20,-8.8 -6.2,-3.7 -11.3,-8.5 -15.4,-14.4 -4.1,-5.9 -6.1,-13.8 -6.1,-23.7 0,-15.8 5.5,-28.6 16.6,-38.4 11,-9.8 26.3,-14.7 45.7,-14.7 8.6,0 16,0.7 22.3,2.2 6.3,1.5 11.6,3.2 15.7,5.2 4.2,2 7.4,4.2 9.8,6.6 2.4,2.4 4,4.6 4.9,6.6 1.6,3.2 2.2,6.8 1.9,11 -0.3,4.2 -2.1,7.4 -5.2,9.6 -4.5,2.9 -8.7,3.9 -12.5,2.9 -3.8,-1 -7.3,-2.4 -10.5,-4.2 -1.8,-0.9 -4.7,-2.2 -8.6,-3.9 -3.9,-1.7 -9.9,-2.5 -17.8,-2.5 -7.2,0 -12.7,1.8 -16.4,5.2 -3.7,3.5 -5.6,7.8 -5.6,13 0,4.3 2,7.6 5.9,10 3.9,2.4 8.9,4.5 14.9,6.4 6,1.9 12.5,3.9 19.5,6.1 7,2.1 13.5,5.2 19.5,9.1 6,3.9 10.9,9.2 14.9,15.7 3.9,6.5 5.9,15 5.9,25.4 0,15.8 -5.5,28.3 -16.6,37.5 -11.1,9.2 -26.2,13.9 -45.3,13.9 -7,0 -13.8,-0.6 -20.5,-1.9 -6.7,-1.2 -12.7,-3 -18.3,-5.2 -5.5,-2.3 -10.3,-4.8 -14.4,-7.8 -3.9,-2.9 -7,-6 -9,-9.4 z"
   id="path2"
   style="fill:#ffffff;fill-opacity:0.988235" />
	<path
   class="st7"
   d="m 844.7,1077.7 c 0,-4.1 1.9,-7.7 5.6,-11 3.7,-3.3 8.6,-4.9 14.7,-4.9 5.9,0 10.5,1.6 14,4.9 3.5,3.3 5.2,6.9 5.2,11 v 144.1 c 0,4.1 -1.7,7.7 -5.2,11 -3.5,3.3 -8.2,4.9 -14,4.9 -6.1,0 -11,-1.6 -14.7,-4.9 -3.7,-3.3 -5.6,-6.9 -5.6,-11 z"
   id="path3"
   style="fill:#ffffff;fill-opacity:0.988235" />
	<path
   class="st7"
   d="m 946.2,1065.1 v -34.8 c 0,-4.1 1.8,-7.7 5.4,-11 3.6,-3.3 8.6,-4.9 14.9,-4.9 5.9,0 10.5,1.6 14,4.9 3.5,3.3 5.2,6.9 5.2,11 v 34.8 h 25 c 3.8,0 7.2,1.4 10.1,4.2 2.9,2.8 4.4,6.5 4.4,11 0,5 -1.5,8.9 -4.4,11.7 -2.9,2.8 -6.3,4.2 -10.1,4.2 h -25 v 81.9 c 0,9.5 1.2,15.9 3.7,19.3 2.5,3.4 6.1,5.1 10.8,5.1 4.5,0 8.3,-0.4 11.5,-1.2 3.2,-0.8 6.8,-1.2 10.8,-1.2 5.2,0 9,1.4 11.3,4.2 2.4,2.8 3.6,6.7 3.6,11.7 0,4.3 -1.1,7.8 -3.4,10.5 -2.3,2.7 -5.2,4.9 -9,6.6 -3.7,1.7 -8,2.9 -12.9,3.6 -4.9,0.7 -10,1 -15.4,1 -17.6,0 -30.4,-4.6 -38.6,-13.7 -8.1,-9.1 -12.2,-24.9 -12.2,-47.2 v -80.5 h -13.5 c -3.8,0 -7.2,-1.4 -10.1,-4.2 -2.9,-2.8 -4.4,-6.7 -4.4,-11.7 0,-4.5 1.5,-8.2 4.4,-11 2.9,-2.8 6.3,-4.2 10.1,-4.2 h 13.8 z"
   id="path4"
   style="fill:#ffffff;fill-opacity:0.988235" />
	<path
   class="st7"
   d="m 1074.6,1018.3 c 0,-4.1 1.9,-7.7 5.6,-11 3.7,-3.3 8.6,-4.9 14.7,-4.9 5.9,0 10.5,1.6 14,4.9 3.5,3.3 5.2,6.9 5.2,11 v 105.9 h 15.6 l 49.1,-59.5 c 3.2,-2.9 7.4,-4.4 12.9,-4.6 5.4,-0.1 10.3,1.9 14.5,5.9 3.8,4.3 5.4,9 4.6,14.2 -0.8,5.2 -2.8,9.1 -5.9,11.8 l -43.6,48 53.8,67.3 c 2.7,3.2 3.6,7.1 2.7,11.8 -0.9,4.7 -3.9,8.9 -9.1,12.5 -4.5,3.2 -9.2,4.4 -14,3.7 -4.9,-0.7 -8.5,-2.6 -11,-5.7 l -54.5,-71 h -14.9 v 60.9 c 0,4.1 -1.7,7.7 -5.2,11 -3.5,3.3 -8.2,4.9 -14,4.9 -6.1,0 -11,-1.6 -14.7,-4.9 -3.7,-3.3 -5.6,-6.9 -5.6,-11 v -201.2 z"
   id="path5"
   style="fill:#ffffff;fill-opacity:0.988235" />
	<path
   class="st7"
   d="m 1369.2,1237.6 c -5.6,0 -10.2,-1.6 -13.7,-4.9 -3.5,-3.3 -5.2,-6.9 -5.2,-11 v -5.4 l -3,-1 c -2,2.9 -4.2,5.6 -6.6,8.1 -2.4,2.5 -5.2,4.7 -8.6,6.6 -3.4,1.9 -7.4,3.4 -12,4.4 -4.6,1 -10.3,1.5 -17.1,1.5 -10.8,0 -20.3,-2 -28.4,-5.9 -8.1,-3.9 -14.8,-9.1 -20,-15.4 -5.2,-6.3 -9.1,-13.5 -11.7,-21.6 -2.6,-8.1 -3.9,-16.5 -3.9,-25 v -29.8 c 0,-9.5 1.7,-18.8 5.1,-28.1 3.4,-9.2 8.3,-17.6 14.9,-25 6.5,-7.4 14.8,-13.5 24.7,-18.1 9.9,-4.6 21.5,-6.9 34.8,-6.9 12.4,0 23.1,1.7 32.1,5.1 9,3.4 16.4,8.1 22.2,14 5.8,6 10,13 12.7,21.1 2.7,8.1 4.1,17 4.1,26.7 v 94.7 c 0,4.1 -1.8,7.7 -5.4,11 -3.7,3.2 -8.7,4.9 -15,4.9 z m -18.9,-110 c 0,-11.3 -2.8,-19.2 -8.3,-23.8 -5.5,-4.6 -13.4,-6.9 -23.5,-6.9 -5.9,0 -11.2,1.1 -15.9,3.2 -4.7,2.1 -8.8,5.1 -12.2,8.8 -3.4,3.7 -6,7.9 -7.9,12.7 -1.9,4.7 -2.9,9.8 -2.9,15.2 v 32.5 c 0,8.1 3,15.1 9.1,21 6.1,5.9 13.6,8.8 22.7,8.8 5,0 9.8,-0.8 14.4,-2.5 4.6,-1.7 8.7,-4.2 12.3,-7.4 3.6,-3.3 6.5,-7.4 8.8,-12.3 2.3,-5 3.4,-10.7 3.4,-17.3 z"
   id="path6"
   style="fill:#ffffff;fill-opacity:0.988235" />
</g><g
   id="g7"
   style="fill:#ffffff;fill-opacity:0.988235"
   transform="matrix(1.5502586,0,0,1.5502586,-434.54261,-1553.9792)">
	<g
   id="_x23_000000ff_1_"
   style="fill:#ffffff;fill-opacity:0.988235">
		<path
   class="st7"
   d="m 1301.2,1136.3 c 1.6,-1.2 3.7,-1.6 5.7,-1.5 1.7,0.1 3.3,0.8 4.7,1.7 1,0.6 1.9,1.4 2.7,2.2 1,-1 2.2,-1.9 3.4,-2.7 1.2,-0.7 2.6,-1.2 4,-1.3 1.9,0 3.9,0.3 5.5,1.4 1.2,0.8 2.1,1.9 2.7,3.1 0.5,1.2 0.7,2.6 0.8,3.9 v 0.3 c 0,1.5 -0.5,3 -1.2,4.3 -0.8,1.5 -1.9,2.8 -3.1,4 -3.7,3.6 -7.5,7.2 -11.2,10.8 -0.4,0.4 -1.2,0.4 -1.6,0 -3.8,-3.7 -7.7,-7.4 -11.5,-11.1 -0.4,-0.4 -0.7,-0.8 -1.1,-1.2 -0.3,-0.4 -0.6,-0.7 -0.9,-1.1 -0.5,-0.7 -0.9,-1.4 -1.2,-2.2 -0.2,-0.5 -0.4,-0.9 -0.5,-1.4 -0.2,-0.7 -0.3,-1.3 -0.3,-2 v -0.2 c 0,-0.8 0.1,-1.5 0.3,-2.3 0.2,-2 1.2,-3.6 2.8,-4.7 z"
   id="path7"
   style="fill:#ffffff;fill-opacity:0.988235" />
	</g>
</g><g
   id="g24"
   style="fill:#ffffff;stroke:none"
   transform="matrix(1.5502586,0,0,1.5502586,-434.54261,-1553.9792)">
	<path
   class="st8"
   d="m 758.2,1279.6 h 2.6 l 21.7,37.6 v -37.6 h 2.4 v 42.3 h -2.4 l -22,-38 v 38 h -2.4 v -42.3 z"
   id="path8"
   style="fill:#ffffff;stroke:none" />
	<path
   class="st8"
   d="m 818.1,1279.6 h 2.4 v 30.4 c -0.4,3.2 -1.8,6 -4,8.2 -2.7,2.7 -6,4 -9.8,4 -3.8,0 -7.1,-1.3 -9.8,-4 -2.7,-2.7 -4,-6 -4,-9.8 v -28.9 h 2.4 v 28.9 c 0,3.1 1.1,5.8 3.3,8.1 2.2,2.2 4.9,3.3 8.1,3.3 3.2,0 5.8,-1.1 8.1,-3.3 2.2,-2.2 3.3,-4.9 3.3,-8.1 z m -5.6,-10.7 -6.5,4.9 h -2.2 l 4.3,-4.9 z"
   id="path9"
   style="fill:#ffffff;stroke:none" />
	<path
   class="st8"
   d="m 862.2,1315.2 1.8,1.6 c -4.1,3.8 -9,5.6 -14.6,5.6 -6,0 -11.1,-2.1 -15.3,-6.3 -4.2,-4.2 -6.3,-9.3 -6.3,-15.3 0,-6 2.1,-11.1 6.3,-15.3 4.2,-4.2 9.3,-6.3 15.3,-6.3 5.6,0 10.4,1.9 14.6,5.6 l -1.8,1.6 c -3.6,-3.2 -7.9,-4.8 -12.8,-4.8 -5.3,0 -9.8,1.9 -13.6,5.6 -3.8,3.8 -5.6,8.3 -5.6,13.6 0,5.3 1.9,9.9 5.6,13.6 3.8,3.8 8.3,5.6 13.6,5.6 4.9,0.1 9.2,-1.5 12.8,-4.8 z"
   id="path10"
   style="fill:#ffffff;stroke:none" />
	<path
   class="st8"
   d="m 870.6,1322 v -42.3 h 2.4 v 39.9 h 16.4 v 2.4 z"
   id="path11"
   style="fill:#ffffff;stroke:none" />
	<path
   class="st8"
   d="m 916.9,1279.6 v 2.4 h -18.8 v 17.6 h 18.8 v 2.4 h -18.8 v 17.6 h 18.8 v 2.4 h -21.2 v -42.3 z"
   id="path12"
   style="fill:#ffffff;stroke:none" />
	<path
   class="st8"
   d="m 960.6,1285.4 c 4.2,4.2 6.4,9.4 6.4,15.4 0,6 -2.1,11.1 -6.4,15.4 -4.2,4.2 -9.4,6.4 -15.4,6.4 -6,0 -11.1,-2.1 -15.4,-6.4 -4.2,-4.2 -6.4,-9.4 -6.4,-15.4 0,-6 2.1,-11.1 6.4,-15.4 4.2,-4.2 9.4,-6.4 15.4,-6.4 6.1,0 11.2,2.2 15.4,6.4 z m -15.3,-3.9 c -5.3,0 -9.9,1.9 -13.6,5.6 -3.8,3.8 -5.6,8.3 -5.6,13.6 0,5.3 1.9,9.9 5.6,13.7 3.8,3.8 8.3,5.7 13.6,5.7 5.3,0 9.9,-1.9 13.6,-5.7 3.8,-3.8 5.6,-8.3 5.6,-13.7 0,-5.3 -1.9,-9.9 -5.6,-13.6 -3.8,-3.7 -8.3,-5.6 -13.6,-5.6 z"
   id="path13"
   style="fill:#ffffff;stroke:none" />
	<path
   class="st8"
   d="m 1002.8,1282 v 39.9 h -2.4 V 1282 h -10.7 v -2.4 h 23.8 v 2.4 z"
   id="path14"
   style="fill:#ffffff;stroke:none" />
	<path
   class="st8"
   d="m 1039.9,1279.6 v 2.4 h -18.8 v 17.6 h 18.8 v 2.4 h -18.8 v 17.6 h 18.8 v 2.4 h -21.2 v -42.3 z"
   id="path15"
   style="fill:#ffffff;stroke:none" />
	<path
   class="st8"
   d="m 1057.5,1307.3 c -0.2,0 -0.5,0 -0.7,0 h -7.2 v 14.7 h -2.4 v -42.3 h 11.1 c 3.2,0.4 6,1.8 8.2,4 2.7,2.7 4,6 4,9.8 0,3.8 -1.3,7.1 -4,9.8 -1.9,1.9 -4,3.1 -6.4,3.7 l 9.8,15.1 h -2.9 z m -7.9,-25.3 v 22.8 h 7.2 c 3.1,0 5.8,-1.1 8.1,-3.3 2.2,-2.2 3.3,-4.9 3.3,-8.1 0,-3.2 -1.1,-5.8 -3.3,-8.1 -2.2,-2.2 -4.9,-3.3 -8.1,-3.3 z"
   id="path16"
   style="fill:#ffffff;stroke:none" />
	<path
   class="st8"
   d="m 1096.5,1305.8 h -14.7 l -5.9,16.2 h -2.5 l 15.8,-43.3 15.7,43.3 h -2.5 z m -0.9,-2.4 -6.5,-17.8 -6.5,17.8 z"
   id="path17"
   style="fill:#ffffff;stroke:none" />
	<path
   class="st8"
   d="m 1112.6,1307.3 v 14.7 h -2.4 v -42.3 h 11.1 c 3.2,0.4 6,1.8 8.2,4 2.7,2.7 4,6 4,9.8 0,3.8 -1.3,7.1 -4,9.8 -2.7,2.7 -6,4 -9.8,4 z m 0,-25.3 v 22.8 h 7.2 c 3.1,0 5.8,-1.1 8.1,-3.3 2.2,-2.2 3.3,-4.9 3.3,-8.1 0,-3.2 -1.1,-5.8 -3.3,-8.1 -2.2,-2.2 -4.9,-3.3 -8.1,-3.3 z"
   id="path18"
   style="fill:#ffffff;stroke:none" />
	<path
   class="st8"
   d="m 1160.2,1279.6 v 2.4 h -18.8 v 17.6 h 18.8 v 2.4 h -18.8 v 17.6 h 18.8 v 2.4 H 1139 v -42.3 z"
   id="path19"
   style="fill:#ffffff;stroke:none" />
	<path
   class="st8"
   d="m 1192.7,1279.6 h 2.4 v 30.4 c -0.4,3.2 -1.8,6 -4,8.2 -2.7,2.7 -6,4 -9.8,4 -3.8,0 -7.1,-1.3 -9.8,-4 -2.7,-2.7 -4,-6 -4,-9.8 v -28.9 h 2.4 v 28.9 c 0,3.1 1.1,5.8 3.3,8.1 2.2,2.2 4.9,3.3 8.1,3.3 3.2,0 5.8,-1.1 8.1,-3.3 2.2,-2.2 3.3,-4.9 3.3,-8.1 z"
   id="path20"
   style="fill:#ffffff;stroke:none" />
	<path
   class="st8"
   d="m 1213.5,1282 v 39.9 h -2.4 V 1282 h -10.7 v -2.4 h 23.8 v 2.4 z"
   id="path21"
   style="fill:#ffffff;stroke:none" />
	<path
   class="st8"
   d="m 1232.4,1279.6 v 42.3 h -2.4 v -42.3 z"
   id="path22"
   style="fill:#ffffff;stroke:none" />
	<path
   class="st8"
   d="m 1274.6,1315.2 1.8,1.6 c -4.1,3.8 -9,5.6 -14.6,5.6 -6,0 -11.1,-2.1 -15.3,-6.3 -4.2,-4.2 -6.3,-9.3 -6.3,-15.3 0,-6 2.1,-11.1 6.3,-15.3 4.2,-4.2 9.3,-6.3 15.3,-6.3 5.6,0 10.4,1.9 14.6,5.6 l -1.8,1.6 c -3.6,-3.2 -7.9,-4.8 -12.8,-4.8 -5.3,0 -9.8,1.9 -13.6,5.6 -3.8,3.8 -5.6,8.3 -5.6,13.6 0,5.3 1.9,9.9 5.6,13.6 3.8,3.8 8.3,5.6 13.6,5.6 4.9,0.1 9.2,-1.5 12.8,-4.8 z"
   id="path23"
   style="fill:#ffffff;stroke:none" />
	<path
   class="st8"
   d="m 1319.4,1285.4 c 4.2,4.2 6.4,9.4 6.4,15.4 0,6 -2.1,11.1 -6.4,15.4 -4.2,4.2 -9.4,6.4 -15.4,6.4 -6,0 -11.1,-2.1 -15.4,-6.4 -4.2,-4.2 -6.4,-9.4 -6.4,-15.4 0,-6 2.1,-11.1 6.4,-15.4 4.2,-4.2 9.4,-6.4 15.4,-6.4 6.1,0 11.2,2.2 15.4,6.4 z m -15.3,-3.9 c -5.3,0 -9.9,1.9 -13.6,5.6 -3.8,3.8 -5.6,8.3 -5.6,13.6 0,5.3 1.9,9.9 5.6,13.7 3.8,3.8 8.3,5.7 13.6,5.7 5.3,0 9.9,-1.9 13.6,-5.7 3.8,-3.8 5.6,-8.3 5.6,-13.7 0,-5.3 -1.9,-9.9 -5.6,-13.6 -3.7,-3.7 -8.3,-5.6 -13.6,-5.6 z"
   id="path24"
   style="fill:#ffffff;stroke:none" />
</g>
</svg>
