<?xml version="1.0" encoding="UTF-8" standalone="no"?>
<!-- Created with Inkscape (http://www.inkscape.org/) -->

<svg
   width="201.84479mm"
   height="139.35936mm"
   viewBox="0 0 201.84479 139.35936"
   version="1.1"
   id="svg1"
   xml:space="preserve"
   xmlns="http://www.w3.org/2000/svg"
   xmlns:svg="http://www.w3.org/2000/svg"><defs
     id="defs1" /><g
     id="layer1"
     transform="translate(1383.1447,-121.11198)"><path
       id="path6"
       style="font-size:42.3285px;line-height:0.8;font-family:Dearest;-inkscape-font-specification:Dearest;fill:#f9f9f9;fill-opacity:1;stroke-width:4.21009;stroke-linecap:round;stroke-linejoin:bevel;stroke-miterlimit:3.1;paint-order:fill markers stroke"
       d="m -1211.2449,121.11411 c -0.897,0.031 -3.1749,1.20733 -6.8364,3.53057 -2.2457,1.42566 -4.4676,2.85098 -6.6637,4.27466 -2.1976,1.37406 -4.2078,2.39182 -6.0311,3.05428 -0.2457,0.10776 -0.3645,0.28723 -0.3556,0.53639 0.02,0.49853 0.3492,0.73676 0.9969,0.71405 0.049,-9.6e-4 0.1512,-0.031 0.2978,-0.0866 0.1472,-0.0556 0.2718,-0.085 0.3715,-0.0881 1.196,-0.0408 2.2404,0.57134 3.133,1.83762 0.9423,1.26449 1.4336,2.51903 1.477,3.76507 l 0.9594,27.51179 c -0.5872,1.76692 -1.4597,3.19584 -2.6196,4.28414 -1.1113,1.0367 -1.9838,1.78928 -2.6161,2.26037 -0.1413,0.20458 -0.2084,0.45687 -0.1982,0.75585 0.02,0.34894 0.5733,0.70392 1.6839,1.06446 0.708,0.27464 1.4158,0.52465 2.1223,0.7495 3.3466,1.52998 5.5933,2.99777 6.7402,4.4048 0.3131,0.38829 0.5443,0.57967 0.6937,0.57445 0.3986,-0.0157 0.7657,-0.25097 1.099,-0.71162 0.3348,-0.41098 0.645,-0.82017 0.9302,-1.22921 0.8623,-1.02821 1.9491,-2.03978 3.2616,-3.03369 0.9261,-0.6311 1.8514,-1.28752 2.7757,-1.96859 1.3624,-0.99556 2.0361,-1.7163 2.0206,-2.16485 -0.02,-0.44871 -0.2481,-0.66506 -0.6968,-0.64939 -0.3985,0.0157 -0.9398,0.23269 -1.6237,0.65559 -0.6358,0.37149 -1.1532,0.56285 -1.552,0.57673 -0.4485,0.0157 -1.1269,-0.13387 -2.0361,-0.45197 -1.0607,-0.36234 -1.6219,-0.71733 -1.6837,-1.0643 l -0.2093,-1.71451 -0.9704,-29.98134 c -0.159,-5.98248 -0.243,-9.12378 -0.2532,-9.42276 0,-1.29762 1.0733,-2.83122 3.2073,-4.60223 2.132,-1.8208 3.1957,-2.80607 3.1906,-2.95547 -0.02,-0.29914 -0.2153,-0.44072 -0.614,-0.42684 z m -32.9738,0.99962 c -3.6407,2.9212 -5.7068,4.49023 -6.1983,4.70707 -0.3867,0.36265 -0.5767,0.64318 -0.5696,0.84255 0,0.14859 0.5673,0.50455 1.6843,1.0643 1.3238,0.75242 2.0367,1.15216 2.1382,1.19852 0.1001,0.0457 0.5912,0.52726 1.4717,1.4446 0.8784,0.8677 1.3677,1.29977 1.4675,1.29633 0.249,-0.0157 1.2884,-0.96731 3.1179,-2.87743 0.096,-0.10285 0.6829,-0.4479 1.7601,-1.03442 0.7836,-0.42651 1.165,-0.93874 1.1442,-1.53686 -0.02,-0.24916 -0.063,-0.37278 -0.161,-0.36919 -1.4731,-0.74718 -3.1945,-2.15896 -5.1631,-4.23614 -0.3113,-0.33849 -0.5417,-0.50455 -0.6913,-0.49933 z m -19.7973,14.08722 c 0,0 0,6.4e-4 0,6.4e-4 -0.349,0.0157 -0.9742,0.68369 -1.8753,2.01185 -1.187,1.73803 -2.191,2.99436 -3.0122,3.77143 -1.0666,0.9598 -2.0622,1.59138 -3.119,1.87535 l 0.073,2.10116 c 1.3672,0.57036 2.6868,1.53409 3.7983,2.58384 0.159,0.24396 0.4696,7.02017 0.9334,20.32737 0.106,3.0247 -0.3292,4.65871 -1.29,4.93581 0.024,0.116 0.039,0.23252 0.053,0.35041 0,0.0915 -2e-4,0.17881 -0.02,0.2619 0.1236,0.14859 0.2349,0.30797 0.3362,0.47729 0.029,0.0605 0.059,0.12091 0.09,0.18215 0.1708,0.12091 0.3358,0.24787 0.4978,0.37801 0.02,0.0157 0.025,0.023 0.037,0.0326 0.4112,-0.27317 0.8232,-0.52954 1.2387,-0.73937 1.3713,-0.69167 3.0042,-1.15278 4.8783,-1.40034 0.8501,-1.85509 1.3137,-3.37136 1.3919,-4.37329 0.071,-0.58914 0.3285,-1.14072 0.7352,-1.57245 -0.049,-1.66666 -0.078,-3.15811 -0.1884,-5.39121 -0.2027,-4.38408 -0.3244,-7.17416 -0.3661,-8.37023 l -0.198,-5.68156 c -0.022,-0.59794 0.6744,-1.39561 2.0869,-2.39295 1.4123,-0.99735 2.1179,-1.52182 2.116,-1.57164 0,-0.0506 -0.031,-0.22337 -0.092,-0.52071 -1.9163,-0.58196 -4.1177,-2.15131 -6.6021,-4.70951 -0.2063,-0.19236 -0.4738,-0.70718 -0.8024,-1.54402 -0.2716,-0.685 -0.5066,-1.02528 -0.7052,-1.02251 v -6.5e-4 z m 19.7689,0.13543 c -0.2491,0.0157 -0.4723,0.0408 -0.6699,0.0979 -1.7919,1.55955 -3.5846,3.09426 -5.3785,4.60386 -2.6628,2.33825 -3.9906,3.60666 -3.9836,3.80603 0.02,0.49835 0.2254,0.74051 0.6242,0.72663 2.1134,-0.92207 3.444,-1.39251 3.9921,-1.41161 0.6481,-0.023 1.3049,0.20443 1.9703,0.68025 0.6634,0.42584 1.0048,0.93809 1.0256,1.53603 0.071,2.04353 0.155,5.13453 0.2494,9.27304 0.094,4.08853 0.1747,7.15374 0.246,9.19709 l 0.106,3.06521 c -0.1139,1.0519 -0.8678,2.30169 -2.2644,3.74759 -1.3983,1.3961 -2.0967,2.14345 -2.093,2.24307 0.02,0.29914 0.498,0.70621 1.4643,1.22138 1.2205,0.65609 1.8569,1.00926 1.9085,1.05728 1.5935,1.34155 2.8634,2.69423 3.8091,4.05847 0.4215,0.63404 0.782,0.94463 1.081,0.93416 h 0.2234 c 4.0509,-4.03333 7.4327,-7.24434 10.1438,-9.63422 0.3382,-0.31121 0.5054,-0.51729 0.5019,-0.61706 -0.02,-0.54815 -0.3276,-0.81137 -0.9257,-0.79062 -0.1492,0 -1.1736,0.6894 -3.0723,2.05299 -1.3953,0.0491 -2.3654,-0.56611 -2.9089,-1.84463 l -0.826,-23.70689 c 0.2354,-0.40757 0.9077,-1.18009 2.0159,-2.31656 0.9139,-0.97988 1.3671,-1.5695 1.36,-1.76887 l -0.1629,-0.36772 -4.0405,-2.10575 c -0.3041,-0.13877 -1.0766,-0.83504 -2.3178,-2.08924 -1.0868,-1.10986 -1.7801,-1.65932 -2.079,-1.64904 z m -40.9159,0.75276 h -0.075 c -0.3849,0.41263 -0.7245,0.67404 -1.0201,0.78426 -1.4912,1.5989 -2.9826,3.19731 -4.4736,4.79621 -2.4035,2.62876 -3.5963,4.19221 -3.5788,4.69058 0.02,0.39873 0.1688,0.59272 0.4687,0.58226 0.2989,-0.0157 1.2229,-0.71568 2.771,-2.11684 0.4981,-0.0177 1.1529,0.15997 1.9644,0.53018 0.8593,0.3194 1.2957,0.67831 1.3096,1.07689 l 0.3545,10.16686 c 0.1119,3.19698 0.159,5.39857 0.1767,7.14508 1.5547,-0.50129 3.1211,-0.79813 4.6927,-0.85284 1.3106,-0.0457 2.4562,-0.0506 3.6769,0.54587 l -0.5066,-14.52824 c -0.026,-0.6979 0.5431,-1.61622 1.701,-2.75432 0.6974,-0.81529 1.457,-1.29927 2.2455,-1.53784 l -0.069,-2.03079 c -2.3372,-0.84191 -5.2919,-2.92069 -9.6369,-6.4996 z m -27.3754,0.57982 c -0.2989,0.0157 -1.0281,0.58507 -2.186,1.72318 -1.3522,1.29469 -2.1497,2.02099 -2.3939,2.17922 -4.4879,2.95074 -7.8793,5.16376 -10.1731,6.64084 -0.6907,0.22371 -1.3811,0.47287 -2.0702,0.74638 -0.9881,0.28397 -1.4737,0.65055 -1.4582,1.09908 0.02,0.29898 0.6503,0.75097 1.9189,1.35545 1.267,0.55468 1.943,1.33013 2.0276,2.3252 0.1472,1.34204 0.2793,3.73207 0.3992,7.17103 l 0.3598,10.31661 c 0.026,0.69787 -0.621,1.51921 -1.9353,2.46332 -1.2665,0.89238 -1.8938,1.51303 -1.8818,1.86197 0.02,0.34878 0.1707,0.56709 0.4726,0.65642 0.3025,0.0897 0.5797,0.1796 0.8325,0.27056 2.4871,1.21076 4.9727,2.37173 7.4565,3.48257 1.647,0.68939 3.2817,1.42205 4.91,2.1753 1.5491,-0.8161 2.8042,-1.69034 3.7428,-2.59886 0.3298,-0.38798 0.6713,-0.76516 1.1644,-1.25617 0.049,-0.0473 0.1001,-0.093 0.1511,-0.13721 0.4654,-0.39971 1.1593,-0.89676 2.2565,-0.93496 0.157,0 0.3011,0.0157 0.4468,0.0245 1.5677,-1.53308 3.6169,-2.58252 6.1311,-3.163 0.1904,-0.0979 0.3722,-0.17489 0.5514,-0.25017 1.0044,-0.64628 2.2066,-1.33322 3.571,-2.06474 l 0.1374,-0.10933 c -0.1393,-0.0669 -0.4928,-0.23873 -0.5301,-0.2557 -0.4109,-0.33491 -0.7714,-0.64629 -1.081,-0.93481 -0.1747,-0.69268 -0.3745,-4.30309 -0.602,-10.83194 l -0.3156,-9.04654 c -0.035,-0.9967 0.361,-1.8347 1.1859,-2.51216 0.8244,-0.67732 1.6759,-1.30532 2.5539,-1.88483 0.6907,-0.22369 1.0307,-0.48528 1.0203,-0.78426 -0.02,-0.29898 -1.0014,-0.81349 -2.9729,-1.54322 -1.516,-0.54602 -2.7777,-0.92566 -3.7832,-1.14006 -1.0074,-0.26436 -2.8601,-1.19852 -5.5606,-2.80102 -2.4979,-1.50959 -3.9463,-2.25695 -4.3452,-2.24307 z m -27.8729,1.34615 c -0.1994,0 -0.4199,0.11424 -0.6621,0.32183 -0.6752,0.67226 -1.1561,1.1879 -1.4429,1.54714 -1.9793,1.91536 -4.6408,3.58039 -7.9847,4.99427 -1.3834,0.39762 -2.7902,0.82118 -4.2217,1.27038 -2.1721,0.67453 -3.2491,1.28522 -3.2301,1.83354 0.02,0.29896 0.444,0.58342 1.3016,0.85284 0.9059,0.21798 1.5208,0.67061 1.8439,1.35788 0.1629,0.39354 0.38,4.45282 0.6493,12.17791 l 0.2817,8.0745 c 0.024,0.64792 -0.5209,1.51546 -1.6307,2.60198 -1.06,1.08487 -1.5911,1.60249 -1.5931,1.55285 0.02,0.34878 0.2705,0.58815 0.7742,0.72025 0.3505,0.0375 0.7268,0.0995 1.1288,0.18549 1.4698,0.64727 2.5863,1.15787 3.3478,1.53048 2.9873,1.24327 5.5981,3.12268 7.8314,5.63975 0.5708,0.62882 0.9045,0.9407 1.0044,0.93726 0.049,0 0.818,-0.90002 2.3023,-2.69829 1.4823,-1.84809 2.3691,-2.87826 2.6612,-3.08808 3.5104,-2.36782 5.2608,-3.67525 5.2524,-3.92442 -0.02,-0.44855 -0.2976,-0.66376 -0.846,-0.64466 -0.4485,0.0157 -1.1361,0.33785 -2.0624,0.96894 -0.926,0.6311 -1.5628,0.95277 -1.9118,0.96487 -0.9967,0.0344 -2.4392,-0.53755 -4.3267,-1.71909 -1.8894,-1.23167 -3.1482,-2.286 -3.7777,-3.16236 -0.1825,-0.94168 -0.4185,-5.54962 -0.7068,-13.82285 -0.041,-1.19623 -0.1531,-2.96382 -0.3337,-5.30271 -0.1826,-2.33908 -0.2929,-4.10584 -0.3345,-5.30209 l -0.033,-0.97204 0.3683,-0.16331 c 0.1001,0 0.7818,0.2219 2.0453,0.67697 5.2062,1.91421 7.9346,7.20844 8.187,15.88222 l 0.049,1.42009 c 0.2719,0.63928 0.583,0.95343 0.9318,0.94134 0.4985,-0.0177 0.7372,-0.32591 0.7164,-0.92403 -0.037,-1.09647 -0.1707,-2.71267 -0.3945,-4.85059 -0.1747,-2.13969 -0.2805,-3.7582 -0.3188,-4.85465 -0.086,-2.49192 0.9447,-5.12262 3.0937,-7.89213 v -0.14858 l -0.1571,-0.21947 c -2.807,-1.79827 -5.1279,-3.96328 -6.9628,-6.49405 -0.306,-0.18882 -0.5839,-0.27857 -0.8332,-0.26975 z m 22.2193,6.11131 v 6.5e-4 c 0.4984,-0.0177 1.5075,0.32004 3.0289,1.01548 1.5212,0.69544 2.515,1.26025 2.9792,1.69312 2.5731,0.8086 3.9014,1.71124 3.986,2.7063 0.1708,2.03994 0.4457,8.49188 0.8244,19.35678 l 0.1315,3.81323 c 0,0.14859 -0.3816,0.48691 -1.1614,1.01303 -0.732,0.47468 -1.198,0.71503 -1.3974,0.72188 h -0.1492 c -5.4284,-2.5551 -8.1509,-4.08166 -8.1682,-4.58001 -0.094,-2.74108 -0.2877,-6.827 -0.5769,-12.25594 -0.239,-5.43075 -0.4071,-9.51667 -0.5027,-12.25776 -0.027,-0.79731 0.3076,-1.20717 1.0054,-1.23149 z m 35.7171,21.5378 c -2.7649,0.0964 -5.6032,1.06267 -8.5139,2.89947 -0.8862,0.65053 -1.5907,1.19231 -2.113,1.62373 l -3.5567,2.85048 c -1.501,0.79619 -2.7564,1.52199 -3.7665,2.17694 -0.6118,0.22777 -0.9147,0.42421 -0.909,0.58929 0.02,0.24755 0.1178,0.40904 0.3258,0.48447 1.6449,-0.22273 2.7702,0.0261 3.3738,0.7495 0.4328,0.56332 0.677,1.65066 0.7329,3.26 l 0.3046,8.72699 c 0.055,1.56821 0.1571,3.89847 0.3053,6.99193 l 0.2438,6.996 c 0.049,1.44427 -0.159,2.52539 -0.6303,3.24417 -0.079,0.12739 -0.8358,0.91768 -2.2724,2.37256 -0.5221,0.4314 -0.9247,0.75488 -1.2062,0.97122 v 0.062 c 0.2603,0.36283 0.9388,0.83472 2.0333,1.41636 1.1357,0.58014 1.8728,1.00943 2.2132,1.28669 0.8098,0.71552 1.3235,1.21273 1.5398,1.4944 0.2577,0.28019 0.5649,0.78671 0.921,1.51807 0.2648,0.48643 0.5417,0.72482 0.8307,0.71469 0.2477,-0.0157 0.4687,-0.15997 0.665,-0.45669 0.1976,-0.2549 0.337,-0.42504 0.4167,-0.5106 1.0152,-1.68806 2.3003,-3.3237 3.8564,-4.90661 l 1.2087,-0.90966 c 0.5634,-0.43287 0.8403,-0.77266 0.8317,-1.02022 0,-0.16507 -0.636,-0.47336 -1.8912,-0.9255 -1.2553,-0.45197 -1.9103,-0.86395 -1.9644,-1.23395 l -0.1139,-3.28058 c -0.057,-1.60936 -0.1217,-4.04444 -0.1923,-7.30592 -0.071,-3.26148 -0.1374,-5.6974 -0.1924,-7.30675 l 0.2966,-0.38193 4.0706,-2.37254 c 2.7234,-0.0946 4.4918,0.85529 5.305,2.85146 l 0.6989,20.05598 c 0.053,1.52672 -0.4218,2.72067 -1.4248,3.58201 -1.606,1.33666 -3.2124,2.65323 -4.82,3.94875 -2.5205,2.3603 -3.7579,4.22112 -3.7104,5.58293 0.025,0.74279 0.5844,1.9418 1.6749,3.59768 0.8825,0.42374 1.5558,0.77234 2.0198,1.04536 h 0.1237 c 1.8594,-1.18023 3.2495,-2.20044 4.1697,-3.05884 1.0144,-0.53101 1.7856,-0.92811 2.3136,-1.19443 0.243,-0.1323 0.3611,-0.30258 0.3541,-0.50897 -0.02,-0.33017 -0.2654,-0.48595 -0.7606,-0.46863 -0.082,0 -1.0364,0.46912 -2.8632,1.40049 -0.7014,0.0245 -1.3287,-0.18117 -1.881,-0.61624 -0.511,-0.43661 -0.7787,-1.00502 -0.8031,-1.7065 -0.065,-1.81574 0.5677,-3.26344 1.8934,-4.3426 5.1853,-4.14714 9.1885,-6.6415 12.0099,-7.48358 0.6132,-0.18667 0.9159,-0.40478 0.9075,-0.65249 0,-0.16508 -0.3031,-0.40168 -0.8925,-0.7116 -0.5905,-0.35123 -0.9293,-0.56724 -1.0146,-0.64694 -0.5169,-0.60171 -0.8855,-1.10544 -1.1061,-1.51088 l -0.613,-17.5786 c -0.02,-0.37147 0.3857,-0.8001 1.1952,-1.28277 0.8495,-0.52546 1.2686,-0.93171 1.2586,-1.22056 0,-0.12405 -0.9355,-0.77268 -2.7946,-1.94737 -2.0282,-1.29274 -3.2534,-2.6547 -3.6752,-4.08607 l -0.1943,-0.24149 c -1.2888,0.9539 -2.3133,1.8154 -3.0715,2.58563 -3.8254,2.86013 -6.6335,4.67357 -8.4248,5.43842 h -0.1236 l -0.1904,-0.11758 -0.3795,-10.89429 c -0.043,-1.23803 0.5061,-2.68199 1.6467,-4.33312 0.9916,-1.19136 1.7854,-2.08795 2.3843,-2.68721 0.835,-0.93809 2.0586,-1.43432 3.6681,-1.49032 1.1966,-0.0424 2.4501,0.38928 3.7624,1.29388 1.3536,0.90315 2.0506,1.93266 2.0909,3.08808 0.025,0.70146 -0.4079,1.33731 -1.2971,1.90538 -0.7268,0.47974 -1.4819,0.73315 -2.2659,0.76059 -0.5777,0.0196 -1.2458,-0.14368 -2.0017,-0.4892 -0.7557,-0.34553 -1.1418,-0.78656 -1.1606,-1.32312 v -0.1853 l 0.834,-0.95866 c -0.02,-0.5777 -0.2366,-0.85937 -0.6493,-0.84501 -0.1649,0 -1.7531,1.28 -4.7631,3.82253 -0.081,0.085 -0.1139,0.27303 -0.104,0.56188 0.029,0.86656 0.6952,1.56624 1.9946,2.09937 1.0474,0.41801 2.0661,0.60971 3.0566,0.57526 2.4759,-0.0866 4.8074,-1.36672 6.9934,-3.83919 0.4766,-0.5537 0.6994,-1.26286 0.6692,-2.12958 -0.059,-1.6505 -1.48,-3.33724 -4.2669,-5.05812 -0.5068,-0.31286 -1.3783,-0.44708 -2.6163,-0.40397 z m 31.4708,1.44377 c -1.1751,0.66066 -2.5884,1.02102 -4.2391,1.07851 -0.9079,0.031 -1.5686,0.0326 -1.9827,0 -0.1708,2.19571 -1.2507,5.00161 -3.2387,8.41757 l 0.4442,0.29425 c 3.4648,-3.71525 6.601,-6.79941 9.4077,-9.25231 z m -29.0471,3.76572 v 6.5e-4 z m 0,6.5e-4 v 0 6.5e-4 z m 0,6.5e-4 v 0 6.4e-4 z m 0,6.4e-4 h -0.02 c 0,0 0,0 0,0 0,0 0,0 0,0 z m 0,0 c 0,0 0,0 -0.02,0 0,0 0.02,0 0.02,0 -4e-4,-3.1e-4 0,0 0,0 z m 7.1126,4.38049 c -0.02,0.0605 -0.037,0.12091 -0.055,0.18078 0.022,-0.0344 0.047,-0.0752 0.075,-0.11424 0,-0.0228 -0.02,-0.0442 -0.02,-0.0669 z m 16.1039,2.15229 c -0.4538,0.0157 -0.8998,0.27872 -1.3365,0.78981 -0.6743,0.8086 -1.0309,1.2346 -1.0708,1.27739 l -5.7254,4.66133 c -1.9289,1.55466 -2.864,3.15731 -2.8067,4.80797 0.041,1.19671 0.5292,2.15064 1.4629,2.86174 0.9337,0.71113 1.4091,1.31463 1.4264,1.80987 l 0.02,0.30927 c 0.09,0.20345 0.2783,0.30046 0.5672,0.29033 0.3302,-0.0157 0.9705,-0.59094 1.922,-1.73966 0.5547,-0.6804 1.1091,-1.38173 1.6624,-2.10345 1.703,-0.92698 2.5507,-1.51498 2.5421,-1.76251 -0.02,-0.28901 -0.1806,-0.42731 -0.5106,-0.41589 -0.3301,0.0157 -0.8204,0.15349 -1.4721,0.42372 -0.6118,0.22795 -1.0831,0.34666 -1.4133,0.35826 -1.2791,0.0442 -1.9469,-0.73707 -2.0031,-2.34643 -0.027,-0.74279 0.1374,-1.40949 0.4886,-2.0001 0.3229,-0.21781 0.773,-0.33653 1.3506,-0.35661 1.7745,-0.062 3.6252,0.30731 5.5535,1.10774 1.9684,0.75764 3.6145,1.7532 4.9384,2.9878 0.029,0.82542 -0.9842,1.97626 -3.0399,3.45252 -1.4495,1.08358 -2.8657,1.95944 -4.2472,2.62746 -2.5992,1.28881 -4.7244,1.96221 -6.375,2.01968 -0.4128,0.0157 -1.054,-0.0261 -1.9251,-0.11914 -0.8709,-0.093 -1.5124,-0.1323 -1.925,-0.11758 l -0.4946,0.0177 -0.2913,0.56742 c 0.5922,0.39237 1.2048,0.78524 1.8382,1.1763 1.1944,1.07378 1.8201,2.41437 1.8763,4.02387 0.059,1.65066 0.035,2.78812 -0.069,3.41154 -0.2501,1.12422 -0.8786,2.03358 -1.8873,2.72982 -0.2448,0.0915 -0.4897,0.20363 -0.7329,0.33604 -0.202,0.13073 -0.2982,0.32053 -0.2898,0.56809 0.02,0.33015 0.1846,0.55125 0.5186,0.66358 0.3345,0.11267 0.668,0.20428 1.0011,0.27531 1.1443,0.82786 2.0151,1.49962 2.6116,2.01593 0.8083,0.6742 1.6971,1.86146 2.6651,3.56308 0.2108,0.116 0.3781,0.1739 0.5019,0.16959 0.2475,-0.0157 0.4446,-0.26452 0.5926,-0.76532 0.071,-0.37442 0.159,-0.7495 0.2705,-1.12521 0.4905,-1.33912 1.3591,-2.50531 2.6051,-3.49906 1.2874,-0.99523 2.633,-1.51727 4.0358,-1.56624 1.6508,-0.0571 3.5538,1.19836 5.7092,3.7675 0.6935,0.92616 1.2372,1.71336 1.6313,2.36063 0.6287,-0.9309 1.0784,-1.64953 1.3501,-2.15472 0.6685,-0.97352 1.4821,-1.9521 2.4396,-2.93573 0.3213,-0.25913 1.2627,-1.09745 2.8245,-2.51544 0.081,-0.085 0.1178,-0.1902 0.1139,-0.31399 -0.02,-0.28886 -0.241,-0.4252 -0.6951,-0.40936 -1.4493,0.0506 -2.1638,0.0866 -2.2716,0.10776 -0.7539,-0.0571 -1.1944,-0.29195 -1.2827,-0.72743 -0.1551,-0.90362 -0.3698,-5.27545 -0.6432,-13.11613 l -0.2326,-6.68576 c -0.02,-0.20639 0.3119,-0.52693 0.9577,-0.96258 0.6444,-0.47696 0.9596,-0.92158 0.9453,-1.33421 -0.02,-0.28886 -0.161,-0.46962 -0.4529,-0.54195 -2.4178,-0.6182 -3.7115,-0.96551 -3.8793,-1.04225 z m -52.0057,1.56461 c -0.1648,0 -0.3474,0.0946 -0.5476,0.26663 -0.559,0.55665 -0.9579,0.98381 -1.1954,1.28132 -1.6388,1.58583 -3.8419,2.9643 -6.6107,4.13506 -1.1453,0.32917 -2.3116,0.67911 -3.4968,1.05092 -1.7986,0.55859 -2.6889,1.06559 -2.673,1.5197 0.02,0.24753 0.3674,0.48284 1.0778,0.70604 0.7498,0.18038 1.259,0.55517 1.5265,1.12424 0.1354,0.32591 0.3143,3.68699 0.5372,10.08324 l 0.233,6.68511 c 0.02,0.53639 -0.4312,1.25421 -1.35,2.15392 -0.8778,0.89823 -1.3181,1.32799 -1.3193,1.28685 0.02,0.28886 0.2238,0.48693 0.6407,0.59649 0.2905,0.031 0.6026,0.0817 0.9357,0.1535 1.2168,0.53607 2.1411,0.9585 2.7716,1.26712 2.4735,1.02934 4.6354,2.58596 6.4848,4.66998 0.4725,0.52071 0.7483,0.7792 0.8307,0.77643 0.041,0 0.678,-0.74639 1.9069,-2.23524 1.2276,-1.53014 1.9619,-2.38184 2.2037,-2.55558 2.9064,-1.96057 4.356,-3.04415 4.3489,-3.25054 -0.02,-0.37147 -0.2467,-0.54913 -0.7007,-0.53329 -0.3712,0.0157 -0.9402,0.28051 -1.7073,0.80304 -0.7667,0.52251 -1.2939,0.78915 -1.5826,0.79928 -0.8254,0.0294 -2.02,-0.44724 -3.5828,-1.42564 -1.5644,-1.01973 -2.6065,-1.89153 -3.1277,-2.61716 -0.1511,-0.7797 -0.3474,-4.59473 -0.5861,-11.44491 -0.035,-0.99032 -0.1256,-2.45402 -0.2761,-4.39061 -0.1492,-1.93673 -0.2432,-3.40108 -0.2778,-4.39158 l -0.027,-0.8032 0.3055,-0.13544 c 0.082,0 0.6471,0.18432 1.6931,0.56105 4.3108,1.58502 6.5715,5.96894 6.7805,13.15075 l 0.041,1.17552 c 0.2252,0.52936 0.4821,0.78963 0.771,0.77952 0.4126,-0.0157 0.6097,-0.26926 0.5924,-0.76451 -0.031,-0.90788 -0.1393,-2.24649 -0.3256,-4.01669 -0.1453,-1.77165 -0.2326,-3.11206 -0.2644,-4.01994 -0.071,-2.06328 0.7816,-4.2412 2.5611,-6.53423 v -0.12405 l -0.1295,-0.18137 c -2.3243,-1.48902 -4.2461,-3.2814 -5.7651,-5.37702 -0.2532,-0.15684 -0.4833,-0.23105 -0.6896,-0.22402 z m -31.987,8.46018 -0.2525,0.0157 c -0.1177,0.0157 -0.2017,0.0277 -0.2539,0.0294 l -0.1551,0.0636 -0.1001,-0.0359 c -0.078,0 -0.2208,0.0408 -0.4275,0.11424 -0.581,0.21634 -0.9612,0.39237 -1.1395,0.52936 -0.2922,0.24559 -0.4292,0.63029 -0.411,1.15265 0.02,0.49638 0.2289,0.93318 0.6344,1.31134 v 0.0783 c -0.653,0.0228 -0.9145,0.0245 -0.7844,0.0157 -0.051,0 -0.1629,0.0177 -0.3313,0.0506 -0.1688,0.0326 -0.2991,0.0506 -0.3906,0.0538 -0.3918,0.0157 -0.5847,0.0915 -0.5798,0.23513 l 0.063,0.116 c 0.2746,0 0.5133,0.0605 0.7131,0.17116 0.039,0 0.9604,0.37181 2.7649,1.11965 0.02,0.0522 0.024,0.10443 0.025,0.15684 4e-4,0.0157 -0.02,0.0326 -0.059,0.0605 -0.7115,0.60009 -1.5874,0.96486 -2.629,1.09272 -0.1688,0.0177 -0.2521,0.0801 -0.2485,0.18471 0,0.10442 0.1688,0.17764 0.4977,0.21848 0.4409,0.27237 0.713,0.56317 0.8152,0.87341 0.059,0.18118 0.1276,1.45407 0.2106,3.81797 l 0.024,0.66588 c 0.02,0.27433 -0.1688,0.57363 -0.5367,0.90021 -0.3676,0.32673 -0.5503,0.54243 -0.5466,0.64693 0,0.0915 0.09,0.16155 0.262,0.20754 0.1198,0.0359 0.2452,0.0703 0.3771,0.10442 l 1.5732,0.67061 c 0.027,0.0245 0.3066,0.19939 0.8411,0.52073 0.5337,0.30828 0.8966,0.57019 1.0872,0.7859 l 0.098,0.0359 c 0.051,0 0.09,-0.0359 0.1158,-0.10128 l 0.073,-0.19888 c 0.3333,-0.56073 0.8177,-1.11394 1.4525,-1.65916 0.5078,-0.43613 1.1008,-0.66588 1.7799,-0.68955 0.2091,0 0.4599,0.0294 0.7504,0.1111 0.2899,0.0685 0.4273,0.10285 0.4142,0.10285 0.079,0 0.1158,-0.0571 0.1138,-0.16174 0,-0.0522 -0.1511,-0.19079 -0.4465,-0.41573 -0.2958,-0.23807 -0.4572,-0.53967 -0.4829,-0.90493 -0.1099,-2.04909 -0.1845,-3.64112 -0.2247,-4.77726 l -0.022,-0.62735 c 0.1001,-0.15997 0.1924,-0.28805 0.2801,-0.38258 0.02,-0.0157 0.1276,-0.10128 0.3441,-0.26665 0.1786,-0.13721 0.2671,-0.22518 0.2657,-0.26436 0,-0.15683 -0.1393,-0.23073 -0.4008,-0.22174 -1.339,-0.52856 -2.353,-0.92453 -3.0422,-1.18824 -0.6381,-0.30453 -1.4001,-0.76875 -2.285,-1.39168 -0.4983,-0.4141 -0.8687,-0.74084 -1.1123,-0.9807 -0.1354,-0.11267 -0.2065,-0.28723 -0.2147,-0.52236 -0.022,-0.62685 0.4763,-0.95783 1.4951,-0.99326 0.8487,-0.0294 1.4961,0.12405 1.9393,0.46225 0.3762,0.28772 0.5979,0.48171 0.6667,0.58391 0.1237,0.17882 0.1904,0.37915 0.1981,0.60123 0,0.0783 -0.045,0.18529 -0.1453,0.31955 -0.086,0.12091 -0.1707,0.18274 -0.2492,0.18529 -0.444,0.0157 -0.7538,-0.0589 -0.9296,-0.22321 -0.1747,-0.16371 -0.2713,-0.46063 -0.2864,-0.89155 0,-0.22206 -0.079,-0.33114 -0.2075,-0.32674 l -1.3862,0.73464 -0.035,0.1372 c 0,0.0783 0.077,0.13387 0.2218,0.16822 l 0.3164,0.0881 c 0.106,0.062 0.2621,0.18726 0.4648,0.37638 0.2028,0.18902 0.3761,0.31286 0.5221,0.3731 0.2122,0.085 0.4625,0.12248 0.7497,0.11267 0.3136,-0.0157 0.6292,-0.12739 0.9482,-0.34731 0.3188,-0.23333 0.4737,-0.50031 0.4632,-0.80075 -0.024,-0.65298 -0.4263,-1.1626 -1.2104,-1.52737 -0.6388,-0.31777 -1.3171,-0.46375 -2.0355,-0.43876 z m 10.798,3.58674 c -0.079,0 -0.2701,0.1535 -0.5735,0.45134 -0.3543,0.3393 -0.5634,0.52985 -0.6274,0.57117 -1.1759,0.77333 -2.0639,1.35349 -2.6649,1.74062 -0.1806,0.0587 -0.3618,0.12406 -0.5422,0.19645 -0.2589,0.0752 -0.3884,0.1688 -0.3843,0.2864 0,0.0783 0.1708,0.19742 0.5043,0.3558 0.3319,0.14525 0.5087,0.34829 0.5309,0.60906 0.037,0.35172 0.073,0.97744 0.1041,1.87861 l 0.094,2.70385 c 0,0.18274 -0.161,0.39793 -0.5064,0.64531 -0.332,0.23383 -0.4972,0.3963 -0.4941,0.48757 0,0.0915 0.043,0.15016 0.1237,0.17273 0.08,0.0228 0.1511,0.0457 0.2176,0.0703 0.6521,0.31726 1.3042,0.62244 1.9552,0.91359 0.6635,0.27759 1.3214,0.57427 1.9733,0.89153 0.081,0.023 0.1865,-0.0718 0.3235,-0.28558 0.073,-0.13386 0.1531,-0.26698 0.2406,-0.40071 0.1767,-0.18922 0.3329,-0.37703 0.4703,-0.56497 0.6366,-0.87212 1.7004,-1.31511 3.1906,-1.32783 l 0.254,-0.0157 c 0.079,-0.0294 0.1158,-0.0832 0.1139,-0.16174 0,-0.0654 -0.096,-0.13563 -0.2825,-0.20672 -0.2261,-0.10933 -0.3521,-0.17097 -0.3788,-0.18294 -0.106,-0.0881 -0.2022,-0.169 -0.2832,-0.24461 -0.045,-0.18137 -0.098,-1.12782 -0.1571,-2.83872 l -0.082,-2.36929 c -0.02,-0.26125 0.094,-0.48219 0.3101,-0.65967 0.2163,-0.17744 0.4391,-0.34209 0.669,-0.49378 0.1805,-0.0589 0.2702,-0.12582 0.2677,-0.20445 0,-0.0783 -0.263,-0.21358 -0.7796,-0.40478 -0.3973,-0.14368 -0.7275,-0.24198 -0.9909,-0.29816 -0.264,-0.0703 -0.7496,-0.31464 -1.4574,-0.73461 -0.6544,-0.3955 -1.0331,-0.59143 -1.1375,-0.58768 z m 78.8179,0.13721 0.1884,0.11757 c 0.029,0.8254 0.1099,2.53715 0.2414,5.13552 0.1158,2.14443 0.1963,3.85616 0.2405,5.13551 l 0.082,2.35264 c 0.03,0.86672 -0.705,1.67695 -2.2074,2.43164 -1.2193,0.57967 -2.3452,0.88715 -3.3771,0.92323 -0.949,0.0326 -1.6127,-0.0473 -1.9913,-0.23986 -0.3388,-0.23611 -0.7516,-0.82069 -1.2386,-1.75387 l -0.1923,-5.50879 c -0.063,-1.81574 0.8909,-3.46069 2.864,-4.93434 1.8168,-1.22007 3.6134,-2.44048 5.3888,-3.65925 z m -89.7437,1.57799 c 0.067,0 0.72,0.37393 1.9623,1.12831 0.2004,0.12405 0.3837,0.31891 0.5499,0.58768 0.1787,0.26844 0.2782,0.64497 0.2949,1.12831 0.02,0.54848 0.051,1.37731 0.106,2.48684 0.065,1.10921 0.1079,1.93837 0.1256,2.48686 0,0.11757 -0.073,0.225 -0.2248,0.322 -0.1413,0.0832 -0.2742,0.15997 -0.4025,0.22958 -0.2611,0.0157 -0.7059,-0.15841 -1.3326,-0.50259 -0.614,-0.35777 -0.9438,-0.64727 -0.9909,-0.86788 -0.047,-0.23381 -0.1158,-1.62389 -0.2043,-4.17065 l -0.082,-2.35034 c -0.02,-0.31351 0.055,-0.47305 0.1987,-0.47812 z m 9.4443,0.23988 h 5e-4 c 0.1316,0 0.3938,0.0832 0.7921,0.26583 0.3986,0.18216 0.6603,0.33082 0.7818,0.4443 0.6744,0.21179 1.0224,0.44772 1.0446,0.70849 0.043,0.53444 0.1158,2.22593 0.2155,5.07315 l 0.035,0.99882 c 0,0.0393 -0.1002,0.12739 -0.3045,0.26503 -0.1923,0.12405 -0.3138,0.18765 -0.3661,0.18941 h -0.041 c -1.4225,-0.66963 -2.135,-1.06952 -2.1395,-1.20015 -0.025,-0.71828 -0.075,-1.78847 -0.1511,-3.21119 -0.063,-1.42303 -0.108,-2.49435 -0.1315,-3.21266 -0.02,-0.20867 0.08,-0.31596 0.2634,-0.32265 z m 109.9974,2.55788 c -5.4373,-0.0245 -11.3375,0.15683 -17.6441,0.55778 a 0.53387513,0.53387513 0 0 0 -0.5,0.5697 0.53387513,0.53387513 0 0 0 0.5655,0.49706 c 16.7606,-1.0635 30.6284,-0.58213 40.4582,1.22448 4.915,0.90329 8.8181,2.14116 11.5532,3.65223 2.735,1.51104 4.2658,3.26099 4.6297,5.20164 0.3314,1.76757 -0.2926,3.75182 -1.9748,5.95293 -1.6825,2.20093 -4.4137,4.57985 -8.1431,7.04009 a 0.53387513,0.53387513 0 0 0 -0.1492,0.73855 0.53387513,0.53387513 0 0 0 0.7385,0.15192 c 3.793,-2.50221 6.6046,-4.93485 8.3988,-7.28225 1.7943,-2.34742 2.5806,-4.64794 2.1774,-6.79794 -0.4422,-2.35835 -2.2649,-4.33885 -5.159,-5.93791 -2.8942,-1.5989 -6.8921,-2.85179 -11.8782,-3.76815 -4.9858,-0.91638 -10.9625,-1.49277 -17.7931,-1.70733 -1.7074,-0.0538 -3.4667,-0.085 -5.2791,-0.093 z m -14.6822,9.62949 v 6.5e-4 a 0.53387513,0.53387513 0 0 0 -0.5576,0.51207 0.53387513,0.53387513 0 0 0 0.5127,0.55386 c 6.7139,0.27089 12.0578,1.0767 15.7717,2.31491 1.857,0.61902 3.3033,1.34858 4.3079,2.14526 1.0046,0.79666 1.5616,1.64036 1.731,2.54366 0.2144,1.14301 -0.1865,2.44539 -1.3137,3.92116 -1.1281,1.47595 -2.9732,3.08529 -5.5033,4.75441 a 0.53387513,0.53387513 0 0 0 -0.1511,0.73937 0.53387513,0.53387513 0 0 0 0.7386,0.15192 c 2.5937,-1.7109 4.522,-3.37676 5.762,-4.99884 1.2399,-1.62224 1.8017,-3.23861 1.5157,-4.76387 -0.2261,-1.20505 -0.9693,-2.27687 -2.1146,-3.18524 -1.1455,-0.90835 -2.6999,-1.67483 -4.6361,-2.32029 -3.8721,-1.29095 -9.288,-2.09529 -16.0636,-2.36864 z m -90.87,6.68917 c -15.584,4.61367 -28.8987,9.7562 -38.6584,14.94887 a 0.53387513,0.53387513 0 0 0 -0.2202,0.72433 0.53387513,0.53387513 0 0 0 0.7243,0.22012 c 9.6625,-5.1409 22.9194,-10.27217 38.4549,-14.87163 a 0.53387513,0.53387513 0 0 0 0.3607,-0.66195 0.53387513,0.53387513 0 0 0 -0.6613,-0.35974 z m 60.0881,3.2143 c -3.7007,0.23611 -7.6704,0.67569 -11.7408,1.29862 a 0.46723532,0.46723532 0 0 0 -0.3914,0.53019 0.46723532,0.46723532 0 0 0 0.5312,0.39302 c 4.0454,-0.61918 7.9902,-1.05515 11.6601,-1.2893 a 0.46723532,0.46723532 0 0 0 0.4387,-0.49851 0.46723532,0.46723532 0 0 0 -0.4978,-0.43402 z m 11.5799,0.0392 a 0.46723532,0.46723532 0 0 0 -0.5096,0.41964 0.46723532,0.46723532 0 0 0 0.4205,0.50977 c 2.6581,0.25196 4.7466,0.7033 6.1722,1.29863 1.4258,0.59533 2.1279,1.30253 2.262,2.0174 0.1001,0.52856 -0.08,1.15051 -0.6501,1.89429 -0.5687,0.74393 -1.5156,1.57408 -2.8238,2.4372 a 0.46723532,0.46723532 0 0 0 -0.1315,0.64939 0.46723532,0.46723532 0 0 0 0.6462,0.13073 c 1.364,-0.89969 2.3846,-1.77672 3.051,-2.64866 0.6666,-0.87178 0.9903,-1.77361 0.8284,-2.63674 -0.2189,-1.16717 -1.2539,-2.05006 -2.8215,-2.70468 -1.5675,-0.65445 -3.7276,-1.1097 -6.4436,-1.3672 z m -63.678,3.10538 a 0.53387513,0.53387513 0 0 0 -0.2761,0.0157 c -7.8469,2.59576 -14.5872,5.36558 -19.8239,8.15174 a 0.53387513,0.53387513 0 0 0 -0.221,0.72352 0.53387513,0.53387513 0 0 0 0.7219,0.22092 c 5.1602,-2.74548 11.8543,-5.50127 19.6592,-8.08315 a 0.53387513,0.53387513 0 0 0 0.34,-0.67306 0.53387513,0.53387513 0 0 0 -0.4001,-0.35664 z m 113.3712,1.25599 -2.6485,5.4977 -5.4977,2.64866 5.5136,2.66353 2.6485,5.49851 2.6477,-5.49851 5.4977,-2.6485 -1.8272,-0.89793 -3.6705,-1.74992 z m -89.3166,0.23285 c -6.9137,1.85264 -12.848,4.02517 -17.023,6.24636 a 0.53387513,0.53387513 0 0 0 -0.221,0.72107 0.53387513,0.53387513 0 0 0 0.7219,0.22092 c 4.0586,-2.15946 9.9371,-4.31989 16.7965,-6.15801 a 0.53387513,0.53387513 0 0 0 0.3781,-0.65249 0.53387513,0.53387513 0 0 0 -0.6525,-0.37785 z m 89.3166,4.28888 1.193,2.46318 2.4465,1.17648 -2.4465,1.17777 -1.1781,2.44668 -1.1769,-2.44732 -2.4624,-1.19216 2.4473,-1.17648 z m -49.9237,0.51044 -0.927,1.9235 -1.9234,0.92715 1.9289,0.93089 0.927,1.9245 0.9263,-1.9245 1.9236,-0.92533 -0.6391,-0.31482 -1.2845,-0.61234 z m 0,1.5819 0.4168,0.86168 0.856,0.41263 -0.856,0.41098 -0.4113,0.85692 -0.4125,-0.85692 -0.8615,-0.41654 0.8569,-0.4118 z m -114.6366,0.062 -1.0163,2.10901 -2.1089,1.0153 2.1154,1.02169 1.0153,2.10901 1.0154,-2.10901 2.1089,-1.01613 -0.7005,-0.34405 -1.4084,-0.67061 z m 55.4379,1.65604 a 0.53387513,0.53387513 0 0 0 -0.3961,0.0948 c -1.1172,0.81056 -1.9544,1.60428 -2.4997,2.40161 -0.5449,0.79733 -0.803,1.62748 -0.653,2.42773 0.1649,0.87768 0.7975,1.60986 1.7279,2.1838 0.9304,0.57411 2.1825,1.02414 3.7547,1.37046 a 0.53387513,0.53387513 0 0 0 0.6366,-0.40854 0.53387513,0.53387513 0 0 0 -0.4071,-0.63436 c -1.4979,-0.33 -2.6497,-0.75831 -3.4232,-1.2356 -0.7736,-0.47729 -1.1459,-0.97367 -1.2396,-1.473 -0.086,-0.45525 0.043,-0.9838 0.486,-1.62927 0.4413,-0.64564 1.1903,-1.3752 2.243,-2.13888 a 0.53387513,0.53387513 0 0 0 0.1197,-0.74493 0.53387513,0.53387513 0 0 0 -0.3488,-0.21454 z m -55.4379,0.0783 0.4568,0.94445 0.938,0.45214 -0.938,0.45132 -0.4513,0.93809 -0.4512,-0.93809 -0.9453,-0.45768 0.9388,-0.45116 z m 149.2382,1.48346 -1.846,3.83281 -3.8313,1.84628 3.8421,1.85641 1.8464,3.83201 1.8461,-3.83201 3.8313,-1.84628 -1.2731,-0.62637 -2.5582,-1.21893 z m -42.7768,0.1062 a 0.53387513,0.53387513 0 0 0 -0.2069,0.0245 c -3.5587,1.14201 -7.4681,2.19555 -11.5506,3.10783 a 0.53387513,0.53387513 0 0 0 -0.4048,0.63745 0.53387513,0.53387513 0 0 0 0.6374,0.40463 c 4.1114,-0.91848 8.0518,-1.97723 11.6456,-3.13068 a 0.53387513,0.53387513 0 0 0 0.3454,-0.6729 0.53387513,0.53387513 0 0 0 -0.4661,-0.37083 z m -81.1509,0.51287 a 0.53387513,0.53387513 0 0 0 -0.258,0.098 c -2.1126,1.53259 -3.6793,3.02454 -4.6768,4.48367 -0.9978,1.45928 -1.4292,2.91694 -1.1711,4.29296 0.2831,1.50925 1.3715,2.80264 3.0835,3.85877 1.7118,1.05631 4.0711,1.90833 7.0517,2.56508 a 0.53387513,0.53387513 0 0 0 0.6344,-0.4087 0.53387513,0.53387513 0 0 0 -0.4047,-0.63438 c -2.9058,-0.64024 -5.1663,-1.47138 -6.7214,-2.43084 -1.555,-0.95948 -2.3827,-2.01544 -2.5949,-3.14653 -0.1944,-1.03099 0.1099,-2.1877 1.0044,-3.49514 0.8936,-1.30744 2.3725,-2.73504 4.4205,-4.22112 a 0.53387513,0.53387513 0 0 0 0.1197,-0.74785 0.53387513,0.53387513 0 0 0 -0.4867,-0.21456 z m 64.0204,1.64968 -0.8646,1.79419 -1.7942,0.86462 1.7989,0.86948 0.8646,1.79338 0.8641,-1.79338 1.794,-0.8646 -0.5965,-0.29358 -1.1975,-0.57037 z m -93.2214,0.49003 a 0.53387513,0.53387513 0 0 0 -0.3985,0.0946 c -3.0866,2.2393 -5.3647,4.41428 -6.8048,6.52099 -1.4406,2.10674 -2.0467,4.17443 -1.683,6.11379 0.3989,2.12744 1.9378,3.97438 4.4143,5.50241 2.4765,1.52804 5.9141,2.76917 10.2726,3.72946 a 0.53387513,0.53387513 0 0 0 0.6383,-0.40462 0.53387513,0.53387513 0 0 0 -0.4087,-0.63683 c -4.2837,-0.94378 -7.6213,-2.16483 -9.9412,-3.59621 -2.3197,-1.43121 -3.5995,-3.04234 -3.9275,-4.79148 -0.2991,-1.59433 0.1806,-3.3596 1.5171,-5.31447 1.3367,-1.95502 3.529,-4.06649 6.551,-6.25909 a 0.53387513,0.53387513 0 0 0 0.1198,-0.74475 0.53387513,0.53387513 0 0 0 -0.3488,-0.21456 z m 153.1287,0.39369 0.8317,1.71679 1.7049,0.81969 -1.7049,0.82069 -0.8205,1.70568 -0.8206,-1.70568 -1.716,-0.83082 1.705,-0.82067 z m -59.9073,0.59174 0.3891,0.80387 0.7985,0.38436 -0.7985,0.38421 -0.3844,0.79831 -0.3843,-0.79831 -0.8038,-0.38909 0.7993,-0.38423 z m 34.0581,0.0946 a 0.53387513,0.53387513 0 0 0 -0.2756,0.0157 c -6.8397,2.19506 -14.3537,4.21523 -22.1948,5.96714 a 0.53387513,0.53387513 0 0 0 -0.4023,0.63748 0.53387513,0.53387513 0 0 0 0.6383,0.40558 c 7.8701,-1.75842 15.4084,-3.78758 22.2833,-5.99391 a 0.53387513,0.53387513 0 0 0 0.3462,-0.67061 0.53387513,0.53387513 0 0 0 -0.3951,-0.35907 z m -40.8409,1.60707 c -9.1153,1.27935 -17.3304,1.55856 -22.838,0.79847 a 0.53387513,0.53387513 0 0 0 -0.6018,0.45524 0.53387513,0.53387513 0 0 0 0.4559,0.60203 c 5.6835,0.78428 13.9518,0.49085 23.1331,-0.79765 a 0.53387513,0.53387513 0 0 0 0.4536,-0.60285 0.53387513,0.53387513 0 0 0 -0.6028,-0.45524 z m 57.3354,2.03161 a 0.53387513,0.53387513 0 0 0 -0.277,0.0157 c -10.0498,3.22541 -21.0856,6.19216 -32.604,8.76554 a 0.53387513,0.53387513 0 0 0 -0.4055,0.63748 0.53387513,0.53387513 0 0 0 0.6375,0.40478 c 11.5473,-2.57992 22.6153,-5.555 32.7002,-8.79149 a 0.53387513,0.53387513 0 0 0 0.3457,-0.67079 0.53387513,0.53387513 0 0 0 -0.3969,-0.35971 z m -48.4657,6.32522 -2.6486,5.49851 -5.4968,2.64785 5.5125,2.66351 2.6486,5.49851 2.6487,-5.49851 5.4976,-2.6485 -1.828,-0.8979 -3.6696,-1.74912 z m -13.8418,0.2588 c -17.5081,2.45746 -33.2873,2.99989 -43.9283,1.53146 a 0.53387513,0.53387513 0 0 0 -0.6012,0.45525 0.53387513,0.53387513 0 0 0 0.4553,0.60285 c 10.8171,1.49277 26.6493,0.93432 44.2232,-1.53228 a 0.53387513,0.53387513 0 0 0 0.4538,-0.60203 0.53387513,0.53387513 0 0 0 -0.6028,-0.45525 z m 13.8418,4.26374 1.1929,2.46236 2.4475,1.17647 -2.4475,1.17795 -1.1772,2.44652 -1.1771,-2.44734 -2.4624,-1.19214 2.4467,-1.17714 z m -18.7067,4.16429 c -25.7195,3.60977 -48.8989,4.40775 -64.5625,2.24617 a 0.53387513,0.53387513 0 0 0 -0.6012,0.45605 0.53387513,0.53387513 0 0 0 0.4554,0.60203 c 15.8394,2.18591 39.0722,1.37292 64.8574,-2.24633 a 0.53387513,0.53387513 0 0 0 0.4529,-0.60187 0.53387513,0.53387513 0 0 0 -0.602,-0.45605 z m -67.5448,0.25081 -0.6376,1.32081 -1.3208,0.63667 1.3248,0.63991 0.6367,1.3223 0.6368,-1.3223 1.3216,-0.636 -0.4397,-0.21619 -0.8819,-0.42046 z m 0,1.0865 0.2856,0.59241 0.5884,0.28248 -0.5884,0.2833 -0.2825,0.58783 -0.2824,-0.58783 -0.5918,-0.28721 0.5878,-0.28249 z" /></g></svg>
