<?xml version="1.0" encoding="UTF-8" standalone="no"?>
<!-- Created with Inkscape (http://www.inkscape.org/) -->

<svg
   width="1066.2297"
   height="733.48792"
   viewBox="0 0 282.10661 194.06868"
   version="1.1"
   id="svg5"
   xmlns="http://www.w3.org/2000/svg"
   xmlns:svg="http://www.w3.org/2000/svg">
  <defs
     id="defs2" />
  <g
     id="layer1"
     transform="translate(-752.82668,610.40538)">
    <g
       id="g4"
       transform="translate(311.28955,-268.66304)"
       style="fill:#ffffff;fill-opacity:1">
      <path
         d="m 482.44835,-147.67365 -30.16558,-77.03227 q -1.29466,-3.36612 -3.75452,-4.66078 -2.45985,-1.42412 -6.99116,-1.42412 0,-2.33039 0.51786,-4.27238 0.3884,-1.94199 1.55359,-3.88398 h 38.32194 q 0.90626,1.55359 1.55359,3.75451 0.7768,2.07146 0.7768,4.40185 -7.63849,0 -7.63849,5.82597 0,0.64733 0.25893,1.42412 0.25893,0.7768 0.51786,1.68306 l 10.87515,35.08529 3.88398,14.24126 3.88398,-13.98233 10.35728,-35.73262 q 0.25893,-0.77679 0.38839,-1.42412 0.12947,-0.7768 0.12947,-1.29466 0,-2.58932 -1.94199,-4.14291 -1.94199,-1.68306 -5.6965,-1.68306 0,-2.33039 0.38839,-4.27238 0.3884,-1.94199 1.68306,-3.88398 h 30.03611 q 1.1652,1.81252 1.5536,3.88398 0.51786,1.94199 0.51786,4.27238 -4.40184,0 -7.12063,1.29466 -2.58932,1.29466 -3.75451,4.79024 l -22.00922,64.60354 q -2.20093,6.60276 -5.30811,9.58048 -2.97772,2.84825 -8.80369,2.84825 z m 66.41595,-80.26892 q -5.56704,0 -8.93315,-3.23665 -3.23665,-3.36612 -3.23665,-8.93315 0,-5.43758 3.36611,-8.80369 3.49558,-3.36612 9.06262,-3.36612 5.69651,0 8.93316,3.36612 3.36611,3.36611 3.36611,8.80369 0,5.56703 -3.49558,8.93315 -3.36612,3.23665 -9.06262,3.23665 z m -14.50019,79.36266 q -1.42413,-1.42413 -2.20092,-3.10718 -0.7768,-1.68306 -0.7768,-3.88398 3.75451,0 5.56704,-1.5536 1.81252,-1.68305 1.81252,-5.56703 v -37.54515 q 0,-3.36611 -1.68306,-5.04917 -1.55359,-1.68306 -6.86169,-1.68306 v -5.6965 q 1.94199,-1.1652 5.95543,-2.58932 4.01345,-1.55359 8.67422,-2.58932 4.79025,-1.03573 8.54476,-1.03573 2.97772,0 4.27238,1.42413 1.29466,1.29466 1.29466,4.53131 v 50.36227 q 0,3.88398 1.94199,5.43757 1.94199,1.5536 5.6965,1.5536 0,2.20092 -0.77679,3.88398 -0.7768,1.68305 -2.20093,3.10718 z m 62.79112,0.90626 q -5.43758,0 -9.96889,-1.94199 -4.53131,-2.07145 -7.37956,-6.99116 -2.71878,-4.91971 -2.71878,-13.46447 v -35.60315 h -8.15636 v -7.89742 q 3.49558,-0.51787 6.60276,-4.40185 3.10719,-3.88398 5.30811,-9.58048 2.33039,-5.69651 2.97772,-11.39301 2.33039,-0.3884 4.27238,-0.3884 5.17864,0 7.12063,2.97772 2.07145,2.97772 2.07145,5.56704 v 13.59393 h 15.01806 q 0,3.10718 -0.3884,6.21437 -0.25893,2.97771 -1.68306,5.3081 h -12.68767 v 36.50942 q 0,4.14291 1.68306,5.56703 1.68306,1.29466 4.27238,1.29466 2.58932,0 5.17864,-1.29466 2.71879,-1.42412 4.27238,-3.23665 1.42413,1.1652 1.94199,3.49559 0.51786,2.20092 0.51786,3.36611 0,2.84825 -1.94199,5.69651 -1.94199,2.84825 -6.0849,4.79024 -4.01344,1.81252 -10.22781,1.81252 z m 43.88908,0 q -9.70995,0 -15.79485,-5.3081 -5.95544,-5.43758 -5.95544,-13.85287 0,-8.41529 5.43757,-13.59393 5.56704,-5.17864 17.08952,-5.17864 3.75451,0 7.89742,0.7768 4.14292,0.64733 6.73224,2.07145 v -17.21897 q 0,-5.43758 -2.84826,-7.50903 -2.71878,-2.20092 -6.73223,-2.20092 -4.27238,0 -6.99116,2.07145 2.58932,0.90626 3.75451,2.84825 1.1652,1.81253 1.1652,4.01345 0,4.27238 -3.10719,6.8617 -2.97772,2.45985 -7.37956,2.45985 -4.91971,0 -7.89743,-2.84825 -2.97772,-2.97772 -2.97772,-7.37956 0,-4.40185 2.97772,-8.28583 2.97772,-4.01344 9.19209,-6.60276 6.34383,-2.58932 16.31272,-2.58932 26.02266,0 26.02266,20.58509 v 34.30849 q 0,6.21437 5.95544,7.50903 v 4.14291 q -1.68306,2.45986 -5.69651,3.75452 -4.01344,1.16519 -7.76796,1.16519 -8.80368,0 -12.42873,-6.0849 -2.58932,2.33039 -6.8617,4.27238 -4.27238,1.81252 -10.09835,1.81252 z m 8.41529,-10.48674 q 1.81253,0 3.75452,-0.51787 1.94199,-0.64733 3.23665,-1.55359 v -12.5582 q -1.29466,-0.90626 -3.36612,-1.55359 -1.94199,-0.64733 -3.88398,-0.64733 -3.36612,0 -5.82597,2.20092 -2.45986,2.07145 -2.45986,6.60276 0,3.49559 2.33039,5.82597 2.33039,2.20093 6.21437,2.20093 z m 42.7239,9.58048 q -1.42413,-1.55359 -2.20093,-3.23665 -0.77679,-1.68306 -0.77679,-3.75451 3.75451,0 5.43757,-1.5536 1.68306,-1.68305 1.68306,-5.56703 v -68.74645 q 0,-2.97772 -1.68306,-4.66078 -1.68306,-1.81252 -7.12063,-1.81252 v -5.17864 q 3.23665,-1.81253 7.50903,-3.10719 4.40184,-1.42412 8.67422,-2.20092 4.27238,-0.90626 7.12063,-0.90626 2.97772,0 4.27238,1.29466 1.42412,1.29466 1.42412,4.53131 v 80.78679 q 0,4.01344 1.5536,5.56703 1.68305,1.5536 5.56703,1.5536 0,2.07145 -0.90626,3.75451 -0.77679,1.68306 -2.20092,3.23665 z"
         id="text3"
         style="font-size:129.466px;line-height:1.25;font-family:Calistoga;-inkscape-font-specification:Calistoga;stroke-width:0.705148"
         aria-label="Vital" />
      <path
         id="path4"
         style="opacity:1;fill:#ffffff;fill-opacity:1;stroke-width:3.66486;stroke-linejoin:round"
         d="m 582.12325,-341.74236 c -4.0691,0.68962 -7.7684,3.92187 -10.482,8.64735 -2.1341,3.71612 -3.7325,8.41077 -4.6891,13.54021 -1.8066,-1.58259 -4.6942,-1.3285 -6.1696,0.62932 -5.1676,6.85697 -7.8463,15.91381 -7.4983,24.8924 0.348,8.97872 3.7182,17.73821 9.4287,24.03974 5.7169,6.30834 13.7212,9.95786 21.8237,9.69183 8.1012,-0.26599 15.8854,-4.42275 21.2796,-11.0713 5.3889,-6.64175 8.3465,-15.58774 8.2769,-24.57459 -0.069,-8.98681 -3.1662,-17.8737 -8.6637,-24.40451 -0.8029,-0.95305 -1.9882,-1.50404 -3.2345,-1.50401 v 0 c -0.7096,-4e-5 -1.3994,0.17944 -2.0104,0.50936 -1.0395,-4.71433 -2.6354,-8.98603 -4.6965,-12.37405 -2.469,-4.05857 -5.7046,-6.91846 -9.2601,-7.84136 1.3573,3.16926 2.4573,6.68301 2.8591,10.25358 0.4896,4.34937 -0.08,8.85342 -2.6638,12.65778 -2.2419,3.30084 -3.6723,5.82639 -3.9465,8.49045 -0.19,1.84308 0.1349,4.6985 1.3092,7.83133 v 0.002 c 0.021,0.0569 0.047,0.1148 0.068,0.1718 0.074,0.19136 0.1502,0.38347 0.2301,0.57664 0.034,0.0795 0.066,0.15873 0.099,0.23849 0.1141,0.26793 0.2335,0.53677 0.3604,0.80714 0,0.005 0,0.01 0.011,0.0144 0.014,0.0279 0.025,0.0554 0.038,0.0833 v -0.002 c 0.2768,0.58126 0.5816,1.16652 0.92,1.75226 l 16.2536,-19.30578 c 0.1081,-0.12839 0.2647,-0.20105 0.4327,-0.20099 0.1678,-5e-5 0.3247,0.0726 0.4328,0.20099 4.8722,5.78828 7.739,13.91729 7.8021,22.07275 0.064,8.15574 -2.6774,16.34377 -7.4587,22.2368 -4.7763,5.88683 -11.6356,9.49156 -18.5546,9.71874 -6.9179,0.22713 -13.9422,-2.92425 -18.9865,-8.49045 -5.0503,-5.57307 -8.1672,-13.57413 -8.483,-21.722 -0.316,-8.148 2.168,-16.44805 6.7623,-22.5443 0.2322,-0.30816 0.5983,-0.32791 0.863,-0.0475 l 16.5889,17.64054 c -1.2251,-2.66859 -1.9578,-5.36476 -2.2491,-7.74143 v -0.004 c -0.1652,-1.34623 -0.189,-2.58919 -0.078,-3.66372 0.3804,-3.69342 2.2471,-6.76973 4.5599,-10.17513 1.9709,-2.90188 2.478,-6.42489 2.0543,-10.18945 -0.4133,-3.67258 -1.7358,-7.50545 -3.3195,-10.84196 z" />
    </g>
  </g>
</svg>
