<?xml version="1.0" encoding="UTF-8" standalone="no"?>
<!-- Created with Inkscape (http://www.inkscape.org/) -->

<svg
   width="171.55206mm"
   height="74.722054mm"
   viewBox="0 0 171.55206 74.722054"
   version="1.1"
   id="svg1"
   xml:space="preserve"
   sodipodi:docname="mista principal.svg"
   inkscape:version="1.3.2 (091e20ef0f, 2023-11-25)"
   xmlns:inkscape="http://www.inkscape.org/namespaces/inkscape"
   xmlns:sodipodi="http://sodipodi.sourceforge.net/DTD/sodipodi-0.dtd"
   xmlns="http://www.w3.org/2000/svg"
   xmlns:svg="http://www.w3.org/2000/svg"><sodipodi:namedview
     id="namedview1"
     pagecolor="#505050"
     bordercolor="#eeeeee"
     borderopacity="1"
     inkscape:showpageshadow="0"
     inkscape:pageopacity="0"
     inkscape:pagecheckerboard="0"
     inkscape:deskcolor="#d1d1d1"
     inkscape:document-units="mm"
     inkscape:zoom="1.4004009"
     inkscape:cx="324.19287"
     inkscape:cy="141.03104"
     inkscape:window-width="1920"
     inkscape:window-height="996"
     inkscape:window-x="0"
     inkscape:window-y="0"
     inkscape:window-maximized="1"
     inkscape:current-layer="svg1" /><defs
     id="defs1" /><g
     id="layer1"
     transform="translate(455.28633,-397.94994)"
     style="fill:#ffffff;fill-opacity:1"><path
       id="path43"
       style="font-size:23.3424px;line-height:0.8;font-family:Ultra;-inkscape-font-specification:Ultra;text-align:center;text-anchor:middle;fill:#ffffff;stroke-width:5.89808;stroke-linecap:round;stroke-miterlimit:100;fill-opacity:1"
       d="m -359.795,430.44045 c -1.64734,0 -2.92086,0.41441 -3.81941,1.24488 -0.88494,0.83047 -1.32757,1.83106 -1.32757,3.00189 0,1.19806 0.44263,2.21325 1.32757,3.04374 0.89855,0.81687 2.17207,1.22473 3.81941,1.22473 1.67457,0 2.96065,-0.40786 3.85919,-1.22473 0.91216,-0.83049 1.36891,-1.84568 1.36891,-3.04374 0,-1.17083 -0.45675,-2.17141 -1.36891,-3.00189 -0.89854,-0.83047 -2.18462,-1.24488 -3.85919,-1.24488 z m -88.38479,1.69395 c 0,1.80596 -0.93323,4.6056 -2.00091,5.92315 -0.62627,0.77602 -1.38262,1.38885 -2.26756,1.83813 -0.41714,0.20855 -0.8513,0.36723 -1.30277,0.47594 -0.83006,0.19988 -1.5353,0.87072 -1.5353,1.72651 v 5.18987 h 1.46864 a 1.7373727,1.7373727 0 0 1 1.73685,1.73684 v 4.77801 c 0,1.34781 0.0886,2.59311 0.26561,3.73672 0.19061,1.14359 0.5854,2.13059 1.18443,2.96106 0.59904,0.83049 1.47777,1.48357 2.63498,1.96008 1.15723,0.47652 2.70869,0.71469 4.65553,0.71469 1.75627,0 3.21304,-0.24471 4.37027,-0.73484 1.15723,-0.4901 2.06969,-1.15027 2.73679,-1.98076 0.68072,-0.83047 1.15759,-1.81744 1.42988,-2.96106 0.28591,-1.14361 0.4284,-2.3753 0.4284,-3.69589 v -2.14458 a 1.1440804,1.1440804 0 0 0 -1.14411,-1.1436 h -0.0605 a 1.1440804,1.1440804 0 0 0 -1.14411,1.1436 v 1.89911 c 0,0.42207 -0.0202,0.81631 -0.061,1.18391 -0.0408,0.35395 -0.14312,0.67424 -0.30644,0.96015 -0.14979,0.27229 -0.36025,0.49738 -0.63252,0.67437 -0.25868,0.16341 -0.60615,0.24443 -1.0418,0.24443 -0.78963,0 -1.31435,-0.28552 -1.57303,-0.85731 -0.24505,-0.57182 -0.36742,-1.30699 -0.36742,-2.20555 v -4.53254 a 1.7373727,1.7373727 0 0 1 1.73788,-1.73684 h 4.36821 v -5.0028 a 2.5737086,2.5737086 0 0 0 -2.574,-2.574 h -3.53209 v -0.52503 a 7.0513512,7.0513512 0 0 0 -7.05073,-7.05177 z m 29.77441,6.65851 c -2.23275,0 -4.25405,0.25832 -6.06475,0.77566 -1.81072,0.51735 -3.36319,1.2863 -4.65656,2.30735 -1.27975,1.00748 -2.26673,2.26688 -2.96106,3.77807 -0.69434,1.51121 -1.0418,3.26761 -1.0418,5.26893 0,1.97408 0.34746,3.72344 1.0418,5.24826 0.69433,1.52482 1.68131,2.80487 2.96106,3.83955 1.29337,1.0211 2.84584,1.79001 4.65656,2.30736 1.8107,0.51734 3.832,0.77618 6.06475,0.77618 2.23276,0 4.25455,-0.25884 6.06526,-0.77618 1.81071,-0.51735 3.35666,-1.28626 4.63641,-2.30736 1.27974,-1.03468 2.26622,-2.31473 2.96054,-3.83955 0.70795,-1.52482 1.06247,-3.27418 1.06247,-5.24826 0,-2.00132 -0.35452,-3.75772 -1.06247,-5.26893 -0.69432,-1.51119 -1.6808,-2.77059 -2.96054,-3.77807 -1.27975,-1.02105 -2.8257,-1.79 -4.63641,-2.30735 -1.81071,-0.51734 -3.8325,-0.77566 -6.06526,-0.77566 z m 83.23885,0 c -2.12385,0 -3.94169,0.21047 -5.4529,0.63252 -1.49757,0.42204 -2.73633,0.96035 -3.71657,1.61385 -0.96663,0.6535 -1.68116,1.39524 -2.14406,2.22571 -0.46287,0.81687 -0.69453,1.64067 -0.69453,2.47116 0,1.51119 0.42252,2.68145 1.26659,3.51193 0.85772,0.81687 2.00077,1.22577 3.43028,1.22577 1.49757,0 2.68902,-0.3268 3.57395,-0.9803 0.89854,-0.6671 1.3472,-1.54533 1.3472,-2.63447 0,-1.14362 -0.29206,-1.97398 -0.87746,-2.49132 -0.58543,-0.53097 -1.28037,-0.79633 -2.0836,-0.79633 -0.47651,0 -0.87078,0.0675 -1.18391,0.2036 -0.2995,0.13617 -0.57848,0.27208 -0.83715,0.40825 l -0.20464,-0.20361 c 0.17702,-0.13617 0.38144,-0.28566 0.61288,-0.44907 0.23146,-0.17703 0.52401,-0.33408 0.87798,-0.47025 0.35396,-0.13617 0.77647,-0.25195 1.26659,-0.34727 0.50373,-0.10894 1.10298,-0.16278 1.79731,-0.16278 1.45674,0 2.50411,0.31322 3.14399,0.93948 0.63989,0.61263 0.96015,1.42889 0.96015,2.44998 0,1.14362 -0.36761,2.02837 -1.10277,2.65462 -0.73519,0.62627 -1.66124,1.1379 -2.77761,1.53272 -1.1164,0.39481 -2.33499,0.73418 -3.65559,1.02009 -1.30698,0.27229 -2.51853,0.63335 -3.63492,1.08262 -1.11638,0.43567 -2.04143,1.03439 -2.77658,1.79679 -0.73519,0.74878 -1.10277,1.7776 -1.10277,3.08457 0,1.06191 0.18328,1.9804 0.55087,2.75642 0.38119,0.76239 0.90593,1.38833 1.57303,1.87844 0.68072,0.47651 1.49697,0.82398 2.44998,1.0418 0.96662,0.23142 2.03569,0.34726 3.20652,0.34726 1.2253,0 2.31451,-0.12291 3.2675,-0.36793 0.96663,-0.23144 1.79045,-0.5371 2.47117,-0.91829 0.69433,-0.39481 1.23161,-0.84449 1.61282,-1.34824 0.39481,-0.50373 0.83716,-1.12965 0.83716,-1.12965 0.49568,0.74984 0.48023,1.1711 1.67483,2.15129 0.53096,0.43566 1.24601,0.7962 2.14457,1.0821 0.91215,0.29949 2.05524,0.44907 3.43028,0.44907 1.52481,0 2.77716,-0.17682 3.7574,-0.53071 0.98024,-0.34035 1.75674,-0.84496 2.32854,-1.51206 0.57182,-0.68073 0.95955,-1.48992 1.16375,-2.42931 0.20422,-0.95298 0.30644,-2.04222 0.30644,-3.2675 v -2.59364 h -2.32854 v 2.55282 c 0,0.98024 -0.0876,1.67414 -0.26458,2.08256 -0.16341,0.3948 -0.45698,0.59221 -0.87902,0.59221 -0.53096,0 -0.8366,-0.21805 -0.91829,-0.65371 -0.0817,-0.44927 -0.12299,-1.29323 -0.12299,-2.53214 v -7.98401 c 0,-0.96663 -0.16972,-1.9264 -0.51004,-2.87941 -0.32674,-0.953 -0.93958,-1.80404 -1.83813,-2.55282 -0.88494,-0.74878 -2.13024,-1.36162 -3.73673,-1.83813 -1.60649,-0.4765 -3.67614,-0.71468 -6.2084,-0.71468 z m -45.09079,0.2036 c -2.23275,0 -3.98971,0.4633 -5.26945,1.38907 -1.27977,0.92579 -2.17102,2.09654 -2.67477,3.51244 h -0.34727 v -2.76727 a 1.4189392,1.4189392 0 0 0 -1.41851,-1.41955 h -7.61659 a 4.2189106,4.2189106 0 0 0 -4.21835,4.21938 v 3.35742 h 1.08262 c 0.4765,0 0.90451,0.11578 1.28571,0.34726 0.0179,0.0108 0.0345,0.0196 0.0512,0.0305 0.62886,0.40984 0.52142,1.89112 0.52142,2.67477 v 12.91653 c 0,0.50373 -0.14961,0.93329 -0.44907,1.28726 -0.28589,0.3676 -0.70892,0.5519 -1.26711,0.5519 h -1.22473 v 3.46181 a 4.1138384,4.1138384 0 0 0 4.11396,4.11396 h 8.96741 a 4.1138384,4.1138384 0 0 0 4.11345,-4.11396 v -3.46181 h -1.2051 c -0.73517,0 -1.23218,-0.15701 -1.49086,-0.47025 -0.24505,-0.2995 -0.36794,-0.81014 -0.36794,-1.53169 v -2.00091 c 0.50373,0.24504 1.00832,0.48376 1.51205,0.7152 0.50375,0.21784 1.03447,0.40765 1.59267,0.57102 0.55818,0.1634 1.17758,0.28572 1.85829,0.36742 0.68073,0.0953 1.4567,0.14366 2.32802,0.14366 v -5.1e-4 c 3.19938,0 5.7182,-1.01415 7.55613,-3.04271 1.85154,-2.04215 2.7776,-5.01669 2.7776,-8.92401 0,-3.90732 -0.90592,-6.86876 -2.71663,-8.88369 -1.79709,-2.02855 -4.29473,-3.04271 -7.49411,-3.04271 z m 18.49861,0.71469 a 5.7760999,5.7760999 0 0 0 -5.77691,5.77587 v 1.80093 h 0.4501 c 0.6535,0 1.22503,0.18981 1.71514,0.57102 0.50373,0.36758 0.75551,0.94669 0.75551,1.73633 v 2.87941 c 0,0.53094 -0.17664,1.028 -0.53071,1.49087 -0.34035,0.44928 -0.87111,0.67386 -1.59267,0.67386 h -0.79737 v 1.24281 a 6.3335743,6.3335743 0 0 0 6.3345,6.33398 h 4.52737 a 6.3335743,6.3335743 0 0 0 6.33347,-6.33398 v -1.24281 h -0.55088 c -0.69432,0 -1.26639,-0.13592 -1.71565,-0.40825 -0.44926,-0.2859 -0.67438,-0.88515 -0.67438,-1.7973 v -6.94687 a 5.7760999,5.7760999 0 0 0 -5.77588,-5.77587 z m -56.64667,5.02398 c 1.19806,0 2.0083,0.46328 2.43034,1.38906 0.43566,0.91217 0.65371,2.51147 0.65371,4.79868 0,1.14361 -0.0483,2.11699 -0.14366,2.92023 -0.0953,0.78964 -0.26499,1.42965 -0.51005,1.91978 -0.23144,0.47649 -0.54517,0.83052 -0.93999,1.06195 -0.3812,0.21784 -0.8777,0.3266 -1.49035,0.3266 -0.61261,0 -1.11671,-0.10868 -1.51154,-0.3266 -0.39481,-0.23143 -0.707,-0.58546 -0.93844,-1.06195 -0.23146,-0.49013 -0.40216,-1.13014 -0.51108,-1.91978 -0.0953,-0.80324 -0.14263,-1.77662 -0.14263,-2.92023 0,-1.14361 0.0473,-2.10993 0.14263,-2.89957 0.10893,-0.80323 0.27962,-1.44327 0.51108,-1.91978 0.23144,-0.49013 0.54363,-0.83708 0.93844,-1.04128 0.39483,-0.21784 0.89893,-0.32711 1.51154,-0.32711 z m 33.75711,1.0418 h 5.2e-4 c 0.61265,0 1.1026,0.14251 1.47019,0.4284 0.38119,0.27229 0.6803,0.65349 0.89814,1.1436 0.23146,0.49012 0.38754,1.06217 0.46922,1.71565 0.0817,0.65348 0.12299,1.34136 0.12299,2.06293 0,0.73515 -0.0413,1.4628 -0.12299,2.18436 -0.0817,0.72157 -0.23778,1.36917 -0.46922,1.94097 -0.21784,0.57179 -0.51695,1.03353 -0.89814,1.38751 -0.36759,0.34036 -0.85754,0.51108 -1.47019,0.51108 -0.53097,0 -1.11006,-0.10228 -1.73633,-0.30644 -0.62627,-0.21783 -1.05531,-0.50334 -1.28674,-0.85732 v -5.02398 c 0,-0.72156 0.0413,-1.40186 0.12299,-2.04173 0.0953,-0.63986 0.2514,-1.19127 0.46922,-1.65417 0.21784,-0.46287 0.5245,-0.82397 0.91932,-1.08262 0.39481,-0.27231 0.89837,-0.40824 1.51102,-0.40824 z m 50.56384,5.61568 v 3.04219 c 0,0.89855 -0.20446,1.60002 -0.61288,2.10375 -0.39483,0.4901 -0.91197,0.73587 -1.55185,0.73587 -0.70794,0 -1.18431,-0.17737 -1.42937,-0.53124 -0.24506,-0.36759 -0.36793,-0.77648 -0.36793,-1.22576 0,-0.58541 0.14962,-1.04715 0.44907,-1.38751 0.31314,-0.35397 0.67419,-0.65412 1.08262,-0.89917 0.42204,-0.25868 0.85813,-0.51751 1.30741,-0.77618 0.44926,-0.27229 0.8234,-0.62628 1.12293,-1.06195 z" /><path
       id="path40"
       style="font-size:23.3424px;line-height:0.8;font-family:Ultra;-inkscape-font-specification:Ultra;text-align:center;text-anchor:middle;fill:#ffffff;stroke-width:5.89808;stroke-linecap:round;stroke-miterlimit:100;fill-opacity:1"
       d="m -340.56259,397.94993 a 6.8362727,6.8362727 0 0 0 -5.66322,3.00601 l -2.235,3.30471 h 5.02398 l 7.47396,-6.31072 z m -34.09869,1.53117 a 4.7786539,4.7786539 0 0 0 -4.77852,4.77955 v 1.96009 h 1.08262 c 0.72155,0 1.20499,0.15654 1.45004,0.46974 0.25868,0.29952 0.38757,0.81617 0.38757,1.55133 v 0.73535 c -0.12399,-0.0604 -0.24804,-0.12012 -0.37207,-0.18138 -0.63167,-0.31152 -1.64025,-0.85181 -2.29185,-1.11828 -0.14477,-0.0593 -0.29159,-0.11606 -0.44028,-0.17053 -0.5582,-0.21782 -1.17757,-0.39457 -1.85828,-0.53072 -0.68072,-0.13617 -1.44964,-0.20464 -2.30736,-0.20464 -3.21298,0 -5.73886,0.94671 -7.5768,2.8391 -1.83791,1.8924 -2.75745,4.79243 -2.75745,8.69973 0,3.90733 0.85857,6.87482 2.574,8.90333 1.71539,2.01494 4.24024,3.02307 7.57577,3.02307 1.06193,0 2.00813,-0.12237 2.83858,-0.36741 0.84409,-0.23144 1.57274,-0.5452 2.1854,-0.94 0.61263,-0.40843 1.1298,-0.87826 1.55184,-1.40922 0.42207,-0.53095 0.74231,-1.0884 0.96015,-1.67379 h 0.3266 a 4.1416239,4.1416239 0 0 0 4.52685,3.71656 h 4.66949 a 4.5267986,4.5267986 0 0 0 4.52685,-4.52685 v -3.04994 h -1.16375 c -0.55819,0 -0.9943,-0.13592 -1.30742,-0.40825 -0.29953,-0.28591 -0.44906,-0.70839 -0.44906,-1.26659 v -16.0507 a 4.7786539,4.7786539 0 0 0 -4.77904,-4.77955 z m -35.61592,6.65799 c -2.23274,0 -4.25407,0.25884 -6.06474,0.77618 -1.81073,0.51734 -3.36269,1.28633 -4.65605,2.30735 -1.27975,1.00748 -2.26674,2.26636 -2.96106,3.77755 -0.69433,1.5112 -1.04179,3.26813 -1.04179,5.26945 0,1.97406 0.34746,3.72343 1.04179,5.24826 0.69432,1.5248 1.68131,2.80487 2.96106,3.83955 1.29336,1.02109 2.84532,1.79001 4.65605,2.30736 1.81067,0.51735 3.832,0.77566 6.06474,0.77566 2.23277,0 4.25507,-0.25831 6.06578,-0.77566 1.81067,-0.51735 3.35615,-1.28627 4.6359,-2.30736 1.27975,-1.03468 2.26673,-2.31475 2.96106,-3.83955 0.70794,-1.52483 1.06195,-3.2742 1.06195,-5.24826 0,-2.00132 -0.35401,-3.75825 -1.06195,-5.26945 -0.69433,-1.51119 -1.68131,-2.77007 -2.96106,-3.77755 -1.27975,-1.02102 -2.82523,-1.79001 -4.6359,-2.30735 -1.81071,-0.51734 -3.83301,-0.77618 -6.06578,-0.77618 z m 64.49116,0 c -2.23275,0 -4.25353,0.25884 -6.06423,0.77618 -1.81071,0.51734 -3.36322,1.28633 -4.65656,2.30735 -1.27973,1.00748 -2.26672,2.26636 -2.96106,3.77755 -0.69431,1.5112 -1.0418,3.26813 -1.0418,5.26945 0,1.97406 0.34749,3.72343 1.0418,5.24826 0.69434,1.5248 1.68133,2.80487 2.96106,3.83955 1.29334,1.02109 2.84585,1.79001 4.65656,2.30736 1.8107,0.51735 3.83148,0.77566 6.06423,0.77566 2.23278,0 4.25507,-0.25831 6.06578,-0.77566 0.88923,-0.25408 1.71302,-0.57019 2.47427,-0.94568 -0.008,-0.006 -0.0172,-0.0117 -0.0248,-0.0176 -0.67038,-0.51948 -1.25742,-1.06781 -1.68982,-1.76165 -0.4508,-0.72333 -0.76208,-1.78797 -0.36483,-2.86184 0.39757,-1.07464 1.26807,-1.69654 2.06085,-2.06396 0.76721,-0.35558 1.59248,-0.54711 2.48719,-0.67851 1.00959,-0.14828 2.16459,-0.21033 3.43441,-0.21239 0.18561,-0.89295 0.28164,-1.84283 0.28164,-2.85357 0,-2.00132 -0.35402,-3.75825 -1.06195,-5.26945 -0.69436,-1.51119 -1.68131,-2.77007 -2.96106,-3.77755 -1.27974,-1.02102 -2.8252,-1.79001 -4.63589,-2.30735 -1.81071,-0.51734 -3.833,-0.77618 -6.06578,-0.77618 z m -106.69375,0.91881 a 2.5812503,2.5812503 0 0 0 -2.58124,2.58124 v 2.52129 c 0,1.12959 0.94993,2.00786 2.0035,2.3983 0.24219,0.0898 0.47923,0.19697 0.7121,0.32091 0.85767,0.44929 1.56572,0.87127 2.1239,1.26608 l 2.75746,1.83761 -2.87993,1.87895 c -0.36757,0.24507 -0.77647,0.51696 -1.22577,0.81649 -0.43564,0.2859 -0.87726,0.55886 -1.32653,0.81752 -0.44928,0.24507 -0.88537,0.46208 -1.30741,0.65268 -0.56476,0.24474 -1.08262,0.76832 -1.08262,1.38803 v 2.85357 a 3.1714383,3.1714383 0 0 0 3.17241,3.17241 h 3.49953 a 3.1714383,3.1714383 0 0 0 3.17138,-3.17241 v -3.3352 c -0.0161,6.3e-4 -0.0326,0.001 -0.0491,0.001 -0.71664,0 -1.29811,-0.58043 -1.29811,-1.29707 10e-4,-0.10804 0.0163,-0.21506 0.0455,-0.31936 h -0.005 c 0.1798,-0.82767 1.5274,-1.07542 2.31098,-2.01849 0.79293,0.95264 1.56058,0.80163 2.03811,1.49552 0.11037,0.13026 0.19451,0.28079 0.2465,0.44338 0.0108,0.0267 0.0184,0.0518 0.0258,0.0775 h -0.005 c 0.0287,0.10463 0.0439,0.21298 0.0455,0.32143 0,0.71664 -0.58044,1.29707 -1.29708,1.29707 -0.26396,-8e-4 -0.51746,-0.0815 -0.72967,-0.22685 v 3.56102 a 3.1714383,3.1714383 0 0 0 3.17086,3.17241 h 11.01587 a 3.1714383,3.1714383 0 0 0 3.17086,-3.17241 v -2.43861 c 0,-0.84873 -0.69606,-1.50776 -1.52755,-1.67122 -0.10607,-0.0208 -0.20981,-0.044 -0.31006,-0.0698 -0.53096,-0.14979 -1.0008,-0.32048 -1.40922,-0.51108 -0.39481,-0.19061 -0.75587,-0.39403 -1.08262,-0.61185 -0.31313,-0.23144 -0.61224,-0.42936 -0.89813,-0.59273 l -3.0422,-1.98127 2.83756,-1.87844 c 0.35397,-0.24505 0.7634,-0.50389 1.22628,-0.77618 0.46288,-0.28589 0.92564,-0.54421 1.38854,-0.77567 0.4629,-0.24506 0.9186,-0.45008 1.36788,-0.61339 0.65707,-0.25124 1.24592,-0.83783 1.24592,-1.54513 v -3.2861 a 2.5812503,2.5812503 0 0 0 -2.58124,-2.58124 h -4.88497 a 2.5812503,2.5812503 0 0 0 -2.58176,2.58124 v 3.96565 c 0.67592,0.045 1.21026,0.60718 1.21026,1.29449 -0.002,0.1084 -0.0163,0.21679 -0.0455,0.32143 h 0.005 c -0.007,0.0256 -0.0161,0.0508 -0.0269,0.0775 -0.052,0.16251 -0.13503,0.31364 -0.24547,0.4439 -0.47754,0.69389 -1.24568,0.54237 -2.03863,1.495 -0.78358,-0.94306 -2.13066,-1.19081 -2.31046,-2.01848 h 0.005 c -0.029,-0.10427 -0.0432,-0.21132 -0.0444,-0.31936 0,-0.71663 0.58049,-1.29811 1.29708,-1.29811 0.32328,9e-5 0.63099,0.12163 0.86661,0.33331 v -4.29534 a 2.5812503,2.5812503 0 0 0 -2.58124,-2.58124 z m 72.93715,5.86114 c 0.53094,0 1.08288,0.1153 1.65468,0.34675 0.5718,0.21784 1.02803,0.49026 1.36839,0.817 v 4.61574 c 0,0.72157 -0.0413,1.40238 -0.12299,2.04225 -0.0817,0.63988 -0.23776,1.19078 -0.46922,1.65365 -0.21782,0.4629 -0.52501,0.82395 -0.91984,1.08262 -0.39482,0.25868 -0.89841,0.38757 -1.51102,0.38757 -0.61267,0 -1.10915,-0.13591 -1.49035,-0.40824 -0.36759,-0.27227 -0.66669,-0.65295 -0.89813,-1.14308 -0.21782,-0.49013 -0.36736,-1.0627 -0.44907,-1.71618 -0.0817,-0.65348 -0.12351,-1.34789 -0.12351,-2.08307 0,-0.72155 0.0418,-1.422 0.12351,-2.10272 0.0817,-0.68072 0.23123,-1.27996 0.44907,-1.7973 0.23144,-0.51735 0.53054,-0.92627 0.89813,-1.22577 0.3812,-0.31313 0.87768,-0.46922 1.49035,-0.46922 z m -33.97984,0.34623 h 10e-4 c 1.28982,3.2e-4 2.49929,0.62237 3.24993,1.67122 0.74847,-1.04584 1.95456,-1.66764 3.24063,-1.67122 2.20854,-2e-5 3.99926,1.79019 3.99924,3.99872 -0.005,0.33421 -0.0527,0.66663 -0.14108,0.98909 h 0.016 c -0.0224,0.0787 -0.0503,0.15884 -0.0811,0.24081 -0.16018,0.50107 -0.41751,0.96495 -0.75758,1.36633 -1.47167,2.13844 -3.83754,1.67265 -6.28127,4.6085 -2.41484,-2.90638 -6.56694,-3.66854 -7.12101,-6.21926 h 0.016 c -0.0873,-0.32146 -0.13646,-0.6524 -0.14004,-0.98547 -2e-5,-2.20853 1.79069,-3.99872 3.99923,-3.99872 z m 64.49064,0 h 5.2e-4 10e-4 c 1.28981,3.2e-4 2.49928,0.62237 3.24993,1.67122 0.74846,-1.04584 1.95457,-1.66764 3.24063,-1.67122 2.20854,-2e-5 3.99926,1.79019 3.99924,3.99872 -0.005,0.33421 -0.0524,0.66663 -0.14056,0.98909 h 0.016 c -0.0224,0.0787 -0.0519,0.15884 -0.0827,0.24081 -0.16018,0.50107 -0.41699,0.96495 -0.75706,1.36633 -1.47168,2.13844 -3.83754,1.67265 -6.28127,4.6085 -2.41485,-2.90638 -6.56745,-3.66854 -7.12153,-6.21926 h 0.016 c -0.0873,-0.32146 -0.13594,-0.6524 -0.13953,-0.98547 -1e-5,-2.20853 1.79067,-3.99872 3.99924,-3.99872 z m 11.52953,11.24893 c -0.005,0.0132 -0.01,0.0269 -0.0124,0.0341 -1e-5,1e-5 0.002,-10e-6 0.002,0 a 1.2271231,1.2271231 0 0 1 0.0109,-0.0341 z m 4.21731,0.9617 c -0.26336,0.0216 -0.53042,0.0426 -0.75654,0.0718 0.1352,0.0968 0.30128,0.20275 0.45579,0.3054 0.10195,-0.12433 0.2046,-0.24805 0.30075,-0.37723 z" /><path
       id="path8-5"
       style="font-size:29.8088px;line-height:0.8;font-family:'Dela Gothic One';-inkscape-font-specification:'Dela Gothic One';text-align:center;text-anchor:middle;fill:#ffffff;fill-opacity:1;stroke:none;stroke-width:2.14574;stroke-linecap:square;stroke-miterlimit:100;stroke-opacity:1"
       d="m -303.34884,412.3529 c -0.62841,-0.0756 -1.28242,0.0628 -1.8181,0.39389 -0.6122,0.37843 -1.06138,1.00549 -1.21703,1.70425 -0.15549,0.6988 -0.0149,1.45712 0.37894,2.05951 0.39385,0.6024 1.03426,1.04249 1.7406,1.19993 0.70639,0.15697 1.4735,0.0303 2.08568,-0.34811 0.61221,-0.37844 1.06088,-1.00554 1.21653,-1.70429 0.15547,-0.6988 0.0149,-1.45761 -0.37888,-2.06 -0.39386,-0.60241 -1.03434,-1.042 -1.74063,-1.19944 -0.0883,-0.0196 -0.17734,-0.035 -0.2671,-0.0457 z m -6.332,0.88076 c -0.62831,-0.0767 -1.28134,0.0613 -1.81743,0.39248 -0.61269,0.37836 -1.06343,1.00635 -1.21916,1.70549 -0.15553,0.69917 -0.0137,1.45965 0.38063,2.0622 0.39433,0.60255 1.034,1.041 1.7408,1.19795 0.7064,0.15699 1.4735,0.0304 2.0857,-0.34811 0.6122,-0.37844 1.06087,-1.00552 1.21653,-1.70429 0.15548,-0.6988 0.0149,-1.45713 -0.37895,-2.0595 -0.39384,-0.60239 -1.03427,-1.04248 -1.74058,-1.19993 -0.0882,-0.0196 -0.17779,-0.0353 -0.26753,-0.0463 z m 11.65851,2.59578 c -0.62841,-0.0756 -1.28242,0.0628 -1.81809,0.39391 -0.61221,0.37842 -1.06137,1.00548 -1.21703,1.70424 -0.15547,0.69879 -0.0145,1.45717 0.37944,2.05956 0.39385,0.60239 1.03427,1.04248 1.74058,1.19993 0.70665,0.15768 1.4723,0.0323 2.08497,-0.34619 0.61269,-0.37837 1.06349,-1.00686 1.21922,-1.70601 0.15553,-0.69916 0.0136,-1.45914 -0.38069,-2.06169 -0.39432,-0.60256 -1.03399,-1.04099 -1.7408,-1.19795 -0.0882,-0.0196 -0.17783,-0.035 -0.2676,-0.0458 z m -10.91125,4.17288 c -2.23539,-0.26433 -4.35179,1.20231 -4.85145,3.44687 -0.0757,0.36215 -0.10352,0.73176 -0.0865,1.1013 l -0.0181,-0.002 c -0.0149,2.89901 4.30216,4.72794 6.2187,8.46161 3.35787,-2.59303 5.81133,-1.51724 7.92291,-3.48036 0.46555,-0.3531 0.85624,-0.79426 1.15086,-1.29882 0.053,-0.0816 0.10291,-0.16084 0.14595,-0.24082 l -0.0175,-0.003 c 0.17326,-0.32831 0.30385,-0.67709 0.39028,-1.03813 0.53302,-2.39434 -0.9752,-4.76768 -3.36952,-5.30068 -1.39527,-0.30568 -2.85296,0.077 -3.91681,1.03017 -0.56057,-1.31809 -1.72189,-2.28524 -3.1199,-2.59701 l -5.1e-4,-5e-5 c -0.14962,-0.0334 -0.29932,-0.0587 -0.44833,-0.0764 z m -16.36174,2.70323 c -1.02206,-0.10932 -1.99751,-0.19345 -2.91958,-0.25328 -2.57175,-0.1664 -4.72525,-0.14709 -6.38412,0.0965 -0.82942,0.12186 -1.53713,0.2943 -2.14893,0.57785 -0.61184,0.28356 -1.18831,0.73238 -1.42684,1.37711 -0.23893,0.6447 -0.063,1.27673 0.25479,1.78664 0.31778,0.50991 0.79119,0.97022 1.40047,1.44235 1.21872,0.94439 3.00283,1.92205 5.26209,2.93203 2.36319,1.05647 5.25288,2.13937 8.50702,3.18729 -0.23742,0.25705 -0.43662,0.54181 -0.58686,0.86694 l 0.0201,0.003 c -0.1936,0.36733 -0.34205,0.75648 -0.43695,1.16061 -0.59814,2.68676 1.09454,5.35043 3.78135,5.94856 l 4.9e-4,5e-5 c 1.56918,0.34892 3.20948,-0.0818 4.40673,-1.15444 0.6273,1.47499 1.92652,2.55939 3.49,2.91237 2.68678,0.59816 5.34913,-1.09621 5.94723,-3.78299 0.084,-0.40803 0.11684,-0.82509 0.0971,-1.24121 l 0.0201,0.003 c -0.006,-0.10172 -0.0183,-0.20655 -0.0332,-0.31461 -0.005,-0.0524 -0.0116,-0.104 -0.0188,-0.15602 4.59575,0.88676 8.80439,1.46175 12.25955,1.68534 2.57167,0.16641 4.72447,0.14701 6.3831,-0.0966 0.82947,-0.12185 1.53671,-0.29386 2.1484,-0.5774 0.61183,-0.28354 1.18839,-0.73336 1.42693,-1.3781 0.23894,-0.6447 0.063,-1.27673 -0.25477,-1.78661 -0.31776,-0.50992 -0.79129,-0.96975 -1.40052,-1.44189 -1.21853,-0.9443 -3.0014,-1.9224 -5.26054,-2.93239 -1.96264,-0.87739 -4.29926,-1.77253 -6.89347,-2.65155 -0.35515,0.57706 -0.81471,1.08015 -1.34733,1.4932 -0.009,0.009 -0.021,0.0173 -0.0319,0.0265 2.78531,0.92614 5.26739,1.87028 7.30699,2.78208 2.18445,0.97662 3.88032,1.92337 4.91204,2.72286 0.51587,0.39976 0.85915,0.76662 1.01946,1.02383 0.16022,0.25715 0.12415,0.33207 0.12857,0.32035 0.003,-0.012 -0.0163,0.0677 -0.32471,0.2106 -0.30847,0.14301 -0.84487,0.29491 -1.54704,0.39807 -1.4044,0.20626 -3.46292,0.23926 -5.94959,0.0783 -3.64273,-0.23572 -8.22483,-0.88062 -13.24499,-1.89594 -1.28786,-2.7017 -4.15697,-2.91706 -6.25746,-7.00012 -2.42951,1.8796 -5.50545,2.45219 -7.73362,3.44073 -3.71974,-1.15356 -6.99311,-2.35581 -9.56966,-3.50763 -2.18453,-0.9767 -3.88026,-1.92332 -4.91207,-2.72288 -0.51587,-0.39975 -0.85914,-0.76659 -1.01944,-1.02379 -0.16034,-0.25722 -0.12416,-0.33208 -0.12855,-0.32037 -0.003,0.012 0.0163,-0.0677 0.3247,-0.21059 0.3086,-0.143 0.8449,-0.2954 1.54707,-0.39857 1.40445,-0.20627 3.46279,-0.23876 5.94954,-0.0778 3.78632,0.24511 8.58527,0.92955 13.83861,2.01631 -0.22878,-0.5311 -0.36383,-1.10557 -0.36058,-1.73749 a 0.51572728,0.51572728 0 0 1 0.0331,-0.15396 c -0.002,-0.0214 -10e-4,-0.0427 -10e-4,-0.0641 -3.72082,-0.74435 -7.20656,-1.28832 -10.27293,-1.61458 z" /></g></svg>
