<svg xmlns="http://www.w3.org/2000/svg" xmlns:xlink="http://www.w3.org/1999/xlink" width="1080" zoomAndPan="magnify" viewBox="0 0 810 809.999993" height="1080" preserveAspectRatio="xMidYMid meet" version="1.0"><path fill="#ffffff" d="M 809.980469 405.011719 C 809.980469 181.339844 628.660156 0.0195312 404.988281 0.0195312 C 181.320312 0.0195312 0 181.339844 0 405.011719 C 0 607.152344 148.097656 774.699219 341.710938 805.078125 L 341.710938 522.078125 L 238.878906 522.078125 L 238.878906 405.011719 L 341.710938 405.011719 L 341.710938 315.785156 C 341.710938 214.285156 402.171875 158.21875 494.679688 158.21875 C 538.992188 158.21875 585.335938 166.128906 585.335938 166.128906 L 585.335938 265.792969 L 534.269531 265.792969 C 483.960938 265.792969 468.269531 297.011719 468.269531 329.039062 L 468.269531 405.011719 L 580.589844 405.011719 L 562.636719 522.078125 L 468.269531 522.078125 L 468.269531 805.078125 C 661.882812 774.699219 809.980469 607.152344 809.980469 405.011719 " fill-opacity="1" fill-rule="nonzero"/></svg>