<svg xmlns="http://www.w3.org/2000/svg" xmlns:xlink="http://www.w3.org/1999/xlink" width="1080" zoomAndPan="magnify" viewBox="0 0 810 809.999993" height="1080" preserveAspectRatio="xMidYMid meet" version="1.0"><defs><clipPath id="5fa8fccbd3"><path d="M 0 136.964844 L 419 136.964844 L 419 661 L 0 661 Z M 0 136.964844 " clip-rule="nonzero"/></clipPath></defs><g clip-path="url(#5fa8fccbd3)"><path fill="#ffffff" d="M 234.722656 137.789062 C 256.726562 137.789062 278.730469 139.886719 299.6875 144.078125 C 317.503906 148.269531 334.269531 155.601562 349.988281 166.082031 C 363.609375 176.558594 375.136719 190.183594 382.472656 205.898438 C 390.855469 225.808594 395.046875 246.765625 393.996094 267.722656 C 395.046875 290.777344 388.757812 313.832031 377.230469 333.738281 C 364.65625 352.601562 346.84375 367.273438 326.933594 376.703125 C 355.226562 384.039062 379.328125 401.851562 395.046875 424.902344 C 410.761719 450.054688 418.097656 479.394531 418.097656 508.734375 C 418.097656 532.835938 413.90625 555.886719 403.429688 576.84375 C 393.996094 595.707031 380.375 611.425781 364.65625 625.046875 C 347.890625 637.621094 327.980469 647.050781 308.074219 652.292969 C 287.113281 658.578125 265.109375 660.675781 243.105469 660.675781 L 0 660.675781 L 0 136.742188 L 234.722656 136.742188 Z M 220.050781 349.457031 C 236.816406 350.503906 254.632812 345.265625 268.253906 334.789062 C 281.875 323.261719 289.210938 305.449219 287.113281 286.585938 C 287.113281 276.105469 285.019531 265.628906 280.828125 256.199219 C 276.636719 248.863281 271.398438 242.574219 264.0625 238.382812 C 256.726562 234.191406 248.34375 230 239.960938 228.953125 C 230.53125 226.859375 221.097656 226.859375 211.667969 226.859375 L 108.976562 226.859375 L 108.976562 349.457031 Z M 226.339844 573.699219 C 236.816406 573.699219 247.296875 572.652344 256.726562 570.558594 C 266.15625 568.460938 274.539062 564.269531 282.921875 559.03125 C 290.257812 553.792969 296.546875 546.457031 300.738281 538.074219 C 305.976562 527.59375 308.074219 516.066406 307.023438 504.542969 C 309.121094 482.535156 300.738281 461.578125 285.019531 446.910156 C 268.253906 434.335938 248.34375 429.09375 227.386719 430.144531 L 108.976562 430.144531 L 108.976562 574.75 L 226.339844 574.75 Z M 226.339844 573.699219 " fill-opacity="1" fill-rule="nonzero"/></g><path fill="#ffffff" d="M 573.183594 571.605469 C 590.996094 587.324219 614.050781 595.707031 637.101562 594.660156 C 655.964844 594.660156 673.777344 589.417969 688.449219 578.941406 C 701.023438 570.558594 709.40625 559.03125 714.644531 545.410156 L 801.617188 545.410156 C 792.1875 584.179688 769.132812 618.757812 737.695312 642.859375 C 707.308594 663.816406 670.632812 673.25 632.910156 672.199219 C 606.714844 672.199219 580.515625 668.007812 555.367188 657.53125 C 533.363281 648.097656 513.453125 634.476562 497.734375 616.664062 C 482.019531 597.800781 469.445312 576.84375 461.0625 553.792969 C 451.628906 527.59375 447.4375 500.351562 448.488281 473.105469 C 448.488281 445.863281 452.679688 419.664062 462.109375 393.46875 C 487.257812 320.117188 556.417969 270.867188 633.957031 271.917969 C 662.25 270.867188 689.496094 278.203125 714.644531 290.777344 C 736.648438 303.351562 756.558594 320.117188 771.230469 341.074219 C 785.898438 363.082031 797.425781 387.179688 802.664062 413.378906 C 808.953125 440.621094 811.046875 469.960938 810 498.253906 L 550.128906 498.253906 C 546.984375 524.453125 555.367188 550.648438 573.183594 571.605469 Z M 686.351562 371.464844 C 671.679688 356.792969 651.773438 349.457031 630.816406 350.503906 C 617.191406 350.503906 603.570312 352.601562 592.042969 358.890625 C 582.613281 364.128906 574.230469 371.464844 566.894531 379.847656 C 560.609375 388.230469 556.417969 396.613281 553.273438 407.089844 C 551.175781 415.472656 549.082031 423.855469 549.082031 432.238281 L 710.453125 432.238281 C 708.355469 410.234375 699.972656 389.277344 686.351562 371.464844 Z M 686.351562 371.464844 " fill-opacity="1" fill-rule="nonzero"/><path fill="#ffffff" d="M 528.125 172.367188 L 729.3125 172.367188 L 729.3125 223.714844 L 528.125 223.714844 Z M 528.125 172.367188 " fill-opacity="1" fill-rule="nonzero"/></svg>