<svg xmlns="http://www.w3.org/2000/svg" xmlns:xlink="http://www.w3.org/1999/xlink" width="1080" zoomAndPan="magnify" viewBox="0 0 810 809.999993" height="1080" preserveAspectRatio="xMidYMid meet" version="1.0"><path fill="#ffffff" d="M 405 0 C 181.320312 0 0 181.320312 0 405 C 0 628.679688 181.320312 810 405 810 C 628.679688 810 810 628.679688 810 405 C 810 181.320312 628.679688 0 405 0 Z M 405 81 C 583.929688 81 729 226.070312 729 405 C 729 583.929688 583.929688 729 405 729 C 375.207031 729 346.496094 724.664062 319.09375 717.132812 C 327.714844 699.769531 335.445312 681.472656 339.660156 665.242188 C 344.320312 647.425781 363.390625 574.75 363.390625 574.75 C 375.785156 598.402344 412.007812 618.496094 450.5625 618.496094 C 565.300781 618.496094 648 512.960938 648 381.824219 C 648 256.070312 545.414062 162 413.382812 162 C 249.15625 162 162 272.222656 162 392.265625 C 162 448.074219 191.695312 517.554688 239.203125 539.710938 C 246.414062 543.070312 250.277344 541.613281 251.9375 534.648438 C 253.234375 529.34375 259.664062 503.488281 262.539062 491.457031 C 263.46875 487.652344 263.046875 484.308594 259.925781 480.542969 C 244.214844 461.464844 231.609375 426.449219 231.609375 393.769531 C 231.609375 309.8125 295.160156 228.605469 403.417969 228.605469 C 496.890625 228.605469 562.332031 292.320312 562.332031 383.40625 C 562.332031 486.316406 510.367188 557.585938 442.730469 557.585938 C 405.390625 557.585938 377.339844 526.753906 386.332031 488.847656 C 397.066406 443.609375 417.894531 394.769531 417.894531 362.128906 C 417.894531 332.925781 402.28125 308.574219 369.800781 308.574219 C 331.609375 308.574219 300.902344 348.03125 300.902344 400.964844 C 300.902344 434.660156 312.292969 457.445312 312.292969 457.445312 C 312.292969 457.445312 274.605469 616.890625 267.679688 646.574219 C 264.246094 661.226562 263.101562 678.582031 263.011719 695.933594 C 155.347656 643.265625 81 532.925781 81 405 C 81 226.070312 226.070312 81 405 81 Z M 405 81 " fill-opacity="1" fill-rule="nonzero"/></svg>