<?xml version="1.0" encoding="UTF-8"?>
<svg id="Camada_1" data-name="Camada 1" xmlns="http://www.w3.org/2000/svg" viewBox="0 0 1640.17 414.64">
  <defs>
    <style>
      .cls-1 {
        fill: #fff;
        stroke-width: 0px;
      }
    </style>
  </defs>
  <path class="cls-1" d="M189.67,111.44c-36.06,0-68.84,18.03-79.22,42.07V20.2H39.43v367.14h71.02v-154.07c0-36.06,19.67-65.56,55.18-65.56,32.23,0,45.89,12.57,45.89,53v166.63h71.57v-190.13c0-53.54-38.24-85.78-93.42-85.78Z"/>
  <path class="cls-1" d="M433.88,111.44c-86.32,0-116.92,38.79-118.01,94.52h66.11c3.28-24.04,16.39-39.88,48.62-39.88,27.86,0,45.35,10.38,45.35,27.86,0,18.58-9.83,25.68-45.35,30.59-71.57,9.83-123.47,18.58-123.47,96.16,0,43.71,28.41,73.76,89.6,73.76,36.06,0,64.47-12.57,81.41-31.14.55,8.2,2.19,17.48,4.37,24.04h66.11v-169.91c0-67.75-29.5-105.99-114.73-105.99ZM477.04,285.17c-.55,31.69-27.86,58.46-64.47,58.46-22.4,0-34.42-9.83-34.42-30.05,0-22.95,13.11-34.42,53.54-42.07,26.22-4.92,38.79-8.74,45.89-15.84l-.55,29.5Z"/>
  <polygon class="cls-1" points="739.83 118.54 651.32 220.7 651.32 20.2 579.75 20.2 579.75 387.34 651.32 387.34 651.32 302.11 685.74 266.6 744.75 387.34 824.51 387.34 736.55 217.43 826.7 118.54 739.83 118.54"/>
  <path class="cls-1" d="M1015.18,273.7c0,35.51-19.12,61.19-55.18,61.19-30.05,0-45.35-16.39-45.35-50.26V118.54h-71.02v177.01c0,59,37.7,98.89,91.24,98.89,37.15,0,65.01-14.21,83.59-44.8v37.7h67.2V118.54h-70.48v155.16Z"/>
  <path class="cls-1" d="M1271.42,111.44c-43.16,0-70.48,16.39-86.87,46.44v-39.34h-67.75v268.8h71.02v-154.07c0-40.98,18.03-61.74,55.18-61.74,33.87,0,45.89,11.47,45.89,53v162.81h71.57v-186.3c0-58.46-37.7-89.6-89.05-89.6Z"/>
  <path class="cls-1" d="M1511.26,111.44c-86.32,0-116.92,38.79-118.01,94.52h66.11c3.28-24.04,16.39-39.88,48.62-39.88,27.86,0,45.35,10.38,45.35,27.86,0,18.58-9.83,25.68-45.35,30.59-71.57,9.83-123.47,18.58-123.47,96.16,0,43.71,28.41,73.76,89.6,73.76,36.06,0,64.47-12.57,81.41-31.14.55,8.2,2.19,17.48,4.37,24.04h66.11v-169.91c0-67.75-29.5-105.99-114.73-105.99ZM1554.42,285.17c-.55,31.69-27.86,58.46-64.47,58.46-22.4,0-34.42-9.83-34.42-30.05,0-22.95,13.11-34.42,53.54-42.07,26.22-4.92,38.79-8.74,45.89-15.84l-.55,29.5Z"/>
</svg>